<svg width="40" height="40" viewBox="0 0 40 40" fill="none" xmlns="http://www.w3.org/2000/svg">
<path d="M25.8439 3.8999H23.1252C20.2611 3.90418 17.5156 5.04427 15.4909 7.07008C13.4663 9.0959 12.3278 11.842 12.3252 14.7062C12.3241 15.3746 12.0997 16.0235 11.6877 16.5499L9.32518 19.5562C9.17148 19.7509 9.06638 19.9795 9.01856 20.2229C8.97074 20.4664 8.98157 20.7177 9.05018 20.9562C9.31398 22.0766 10.7836 22.2166 11.7002 22.6374C11.5415 22.7566 11.4118 22.9102 11.3209 23.0866C11.23 23.263 11.1802 23.4577 11.1752 23.6562C11.1122 24.3175 11.8559 24.814 12.2752 25.2062L11.7502 25.7624C11.6116 25.914 11.5125 26.0975 11.4616 26.2965C11.4107 26.4955 11.4096 26.704 11.4585 26.9035C11.5073 27.1031 11.6045 27.2875 11.7415 27.4406C11.8785 27.5936 12.0511 27.7106 12.244 27.7812L11.5252 28.9374C11.2913 29.3289 11.1745 29.7793 11.1887 30.2352C11.2029 30.6911 11.3475 31.1333 11.6054 31.5095C11.8632 31.8857 12.2235 32.1801 12.6435 32.3579C13.0635 32.5356 13.5257 32.5892 13.9753 32.5124L16.3127 32.0749C16.4423 32.0501 16.5757 32.0521 16.7046 32.0807C16.8335 32.1093 16.9552 32.1638 17.0623 32.241C17.1693 32.3183 17.2595 32.4165 17.3273 32.5298C17.3951 32.6431 17.439 32.769 17.4564 32.8999L17.5439 33.5624C17.6382 34.2894 18.0034 34.954 18.5666 35.4233C19.1298 35.8926 19.8493 36.132 20.5814 36.0937L29.6439 35.6749C30.0749 35.6537 30.4958 35.538 30.8771 35.336C31.2583 35.134 31.5905 34.8507 31.8502 34.5062C32.1095 34.1602 32.2884 33.7608 32.3738 33.3369C32.4592 32.9131 32.449 32.4755 32.3439 32.0562L31.9814 30.5687C31.7114 29.4473 31.7564 28.2731 32.1116 27.1758C32.4667 26.0784 33.1182 25.1005 33.994 24.35C41.2365 16.9184 36.5876 3.9774 25.8439 3.8999Z" fill="#3B2463"/>
<path d="M3.75017 25.5328C3.74826 24.6537 3.92043 23.783 4.25675 22.9708C4.59307 22.1586 5.08688 21.4211 5.7097 20.8007C5.82271 20.6825 5.88491 20.5248 5.88298 20.3613C5.88104 20.1978 5.81511 20.0416 5.69933 19.9261C5.58355 19.8107 5.42714 19.7452 5.26363 19.7437C5.10013 19.7422 4.94255 19.8048 4.8247 19.9182C3.3454 21.4125 2.5156 23.4302 2.51563 25.5328C2.51565 27.6355 3.34549 29.6532 4.82481 31.1474C4.94255 31.2613 5.10032 31.3245 5.26416 31.3232C5.42799 31.322 5.58479 31.2565 5.7008 31.1408C5.8168 31.0251 5.88273 30.8684 5.8844 30.7046C5.88606 30.5408 5.82333 30.3828 5.7097 30.2648C5.08687 29.6445 4.59304 28.9069 4.25672 28.0947C3.92039 27.2826 3.74823 26.4118 3.75017 25.5328Z" fill="#3B2463"/>
<path d="M5.89203 25.5328C5.8902 24.9355 6.00716 24.3439 6.23611 23.7922C6.46506 23.2406 6.80142 22.74 7.22562 22.3196C7.33924 22.2017 7.40213 22.0441 7.40078 21.8804C7.39944 21.7167 7.33396 21.5601 7.21841 21.4441C7.10287 21.3282 6.94647 21.2622 6.78279 21.2603C6.61912 21.2584 6.46123 21.3207 6.34302 21.434C5.26072 22.5236 4.6533 23.997 4.65332 25.5328C4.65334 27.0686 5.26079 28.542 6.34312 29.6316C6.40127 29.6895 6.47027 29.7354 6.54617 29.7667C6.62207 29.798 6.70338 29.814 6.78548 29.8139C6.86757 29.8137 6.94883 29.7974 7.02462 29.7659C7.10041 29.7343 7.16924 29.6882 7.22718 29.63C7.28513 29.5719 7.33105 29.5029 7.36234 29.427C7.39362 29.3511 7.40964 29.2697 7.4095 29.1877C7.40935 29.1056 7.39304 29.0243 7.36149 28.9485C7.32994 28.8727 7.28377 28.8039 7.22562 28.7459C6.80142 28.3255 6.46506 27.8249 6.23612 27.2733C6.00717 26.7217 5.89021 26.13 5.89203 25.5328Z" fill="#3B2463"/>
<path d="M8.81668 23.0248C7.72128 22.1823 6.82105 24.7057 6.89377 25.5327C6.89249 25.9987 6.98367 26.4603 7.16204 26.8908C7.34041 27.3213 7.60241 27.7121 7.93288 28.0407C7.99084 28.099 8.05975 28.1454 8.13566 28.1771C8.21157 28.2087 8.29298 28.2251 8.37523 28.2253C8.45749 28.2254 8.53896 28.2093 8.61498 28.1779C8.69099 28.1465 8.76006 28.1004 8.81822 28.0422C8.87638 27.9841 8.92249 27.915 8.9539 27.839C8.9853 27.7629 9.00139 27.6815 9.00125 27.5992C9.0011 27.517 8.98472 27.4356 8.95304 27.3596C8.92136 27.2837 8.875 27.2148 8.81663 27.1569C8.38843 26.7248 8.14819 26.1411 8.1482 25.5327C8.14821 24.9244 8.38847 24.3407 8.81669 23.9086C8.87474 23.8506 8.92078 23.7817 8.9522 23.7059C8.98361 23.63 8.99978 23.5488 8.99978 23.4667C8.99978 23.3846 8.98361 23.3034 8.95219 23.2275C8.92077 23.1517 8.87473 23.0828 8.81668 23.0248Z" fill="#3B2463"/>
</svg>
