<svg width="40" height="40" viewBox="0 0 40 40" fill="none" xmlns="http://www.w3.org/2000/svg">
<g clip-path="url(#clip0_385_1303)">
<path d="M7.5 10.4165V2.9165C7.5 2.48317 7.55 2.0665 7.66667 1.6665H2.91667C1.31667 1.6665 0 2.98317 0 4.58317V12.0832C0 13.6832 1.31667 14.9998 2.91667 14.9998H3.53333L5.66667 17.8332C5.9 18.1332 6.25 18.3165 6.61667 18.3332H6.66667C7.03333 18.3332 7.36667 18.1832 7.6 17.8998L10.1 15.0498C8.55 14.0832 7.5 12.3665 7.5 10.4165Z" fill="#3B2463"/>
<path d="M37.0837 1.6665H32.3337C32.4504 2.0665 32.5004 2.48317 32.5004 2.9165V10.4165C32.5004 12.3665 31.4504 14.0832 29.9004 15.0498L32.4004 17.8998C32.6337 18.1832 32.9671 18.3332 33.3337 18.3332H33.3837C33.7504 18.3165 34.1004 18.1332 34.3337 17.8332L36.4504 14.9998H37.0837C38.6837 14.9998 40.0004 13.6832 40.0004 12.0832V4.58317C40.0004 2.98317 38.6837 1.6665 37.0837 1.6665Z" fill="#3B2463"/>
<path d="M20 16.6667C19.985 16.6667 19.9683 16.6667 19.9533 16.6667C19.5767 16.6517 19.2267 16.4683 19 16.1667L16.875 13.3333H12.9167C11.3083 13.3333 10 12.025 10 10.4167V2.91667C10 1.30833 11.3083 0 12.9167 0H27.0833C28.6917 0 30 1.30833 30 2.91667V10.4167C30 12.025 28.6917 13.3333 27.0833 13.3333H23.4833L20.94 16.24C20.7033 16.5117 20.36 16.6667 20 16.6667Z" fill="#3B2463"/>
<path d="M6.66634 28.3332C8.50729 28.3332 9.99967 26.8408 9.99967 24.9998C9.99967 23.1589 8.50729 21.6665 6.66634 21.6665C4.82539 21.6665 3.33301 23.1589 3.33301 24.9998C3.33301 26.8408 4.82539 28.3332 6.66634 28.3332Z" fill="#3B2463"/>
<path d="M11.1167 30.6667C9.43333 31.9333 8.33333 33.9667 8.33333 36.25V36.6667H1.25C0.566667 36.6667 0 36.1 0 35.4167V34.5833C0 32.05 2.05 30 4.58333 30H8.75C9.61667 30 10.4333 30.25 11.1167 30.6667Z" fill="#3B2463"/>
<path d="M33.3333 28.3332C35.1743 28.3332 36.6667 26.8408 36.6667 24.9998C36.6667 23.1589 35.1743 21.6665 33.3333 21.6665C31.4924 21.6665 30 23.1589 30 24.9998C30 26.8408 31.4924 28.3332 33.3333 28.3332Z" fill="#3B2463"/>
<path d="M40.0005 34.5833V35.4167C40.0005 36.1 39.4338 36.6667 38.7505 36.6667H31.6671V36.25C31.6671 33.9667 30.5671 31.9333 28.8838 30.6667C29.5671 30.25 30.3838 30 31.2505 30H35.4171C37.9505 30 40.0005 32.05 40.0005 34.5833Z" fill="#3B2463"/>
<path d="M20 29.1665C22.7614 29.1665 25 26.9279 25 24.1665C25 21.4051 22.7614 19.1665 20 19.1665C17.2386 19.1665 15 21.4051 15 24.1665C15 26.9279 17.2386 29.1665 20 29.1665Z" fill="#3B2463"/>
<path d="M24.583 31.6665H15.4163C12.888 31.6665 10.833 33.7215 10.833 36.2498V38.7498C10.833 39.4398 11.393 39.9998 12.083 39.9998H27.9163C28.6063 39.9998 29.1663 39.4398 29.1663 38.7498V36.2498C29.1663 33.7215 27.1113 31.6665 24.583 31.6665Z" fill="#3B2463"/>
</g>
<defs>
<clipPath id="clip0_385_1303">
<rect width="40" height="40" fill="white"/>
</clipPath>
</defs>
</svg>
