<svg width="41" height="40" viewBox="0 0 41 40" fill="none" xmlns="http://www.w3.org/2000/svg">
<g clip-path="url(#clip0_385_1061)">
<path d="M39.4951 0H27.7764C26.7325 0 26.2125 1.26508 26.9478 2.00047L30.2792 5.33297L19.785 15.2103L10.9655 5.42109L14.3861 2.00039C15.1212 1.26539 14.6018 0 13.5576 0H1.83887C1.19113 0 0.666992 0.524141 0.666992 1.17188V12.8906C0.666992 13.932 1.92871 14.4554 2.66738 13.7192L6.00223 10.3844L16.0576 21.4142V38.7554C16.0576 39.4031 16.5818 40 17.2295 40H21.917C22.5647 40 23.0889 39.4759 23.0889 38.8281V21.6041L35.2494 10.303L38.6666 13.7191C39.4131 14.4606 40.667 13.9252 40.667 12.8906V1.17188C40.667 0.524141 40.1429 0 39.4951 0Z" fill="#3B2463"/>
</g>
<defs>
<clipPath id="clip0_385_1061">
<rect width="40" height="40" fill="white" transform="translate(0.666992)"/>
</clipPath>
</defs>
</svg>
