<svg width="41" height="40" viewBox="0 0 41 40" fill="none" xmlns="http://www.w3.org/2000/svg">
<g clip-path="url(#clip0_385_1071)">
<path d="M12.1642 23.0608H0.333984V38.9472H12.1642V23.0608Z" fill="#3B2463"/>
<path d="M40.3342 18.9788H28.5039V38.947H40.3342V18.9788Z" fill="#3B2463"/>
<path d="M26.2516 13.0552H14.418V38.9471H26.2516V13.0552Z" fill="#3B2463"/>
<path d="M34.5097 6.94263L36.185 10.3413L39.9373 10.8871L37.2252 13.5323L37.8637 17.2692L34.5097 15.5046L31.1556 17.2692L31.7941 13.5323L29.082 10.8871L32.8309 10.3412L34.5097 6.94263Z" fill="#3B2463"/>
<path d="M20.3983 1.05322L22.0754 4.45366L25.8277 4.99956L23.1156 7.64641L23.7559 11.3798L20.4001 9.61695L17.0443 11.3798L17.6828 7.64641L14.9707 4.99956L18.7213 4.45366L20.3983 1.05322Z" fill="#3B2463"/>
<path d="M6.0428 10.9062L7.71811 14.3067L11.4704 14.8543L8.76008 17.4977L9.3986 21.2328L6.0428 19.47L2.687 21.2346L3.32727 17.4994L0.615234 14.8559L4.36581 14.3084L6.0428 10.9062Z" fill="#3B2463"/>
</g>
<defs>
<clipPath id="clip0_385_1071">
<rect width="40" height="40" fill="white" transform="translate(0.333984)"/>
</clipPath>
</defs>
</svg>
