<svg width="40" height="40" viewBox="0 0 40 40" fill="none" xmlns="http://www.w3.org/2000/svg">
<g clip-path="url(#clip0_385_1086)">
<path d="M25.1931 5.66789L24.6878 3.15771H23.0316L22.5264 5.66789C22.4739 5.92864 22.2786 6.13732 22.0218 6.20684C21.442 6.36314 20.885 6.59433 20.365 6.89456C20.1332 7.02898 19.8452 7.01973 19.6225 6.8707L17.4969 5.44614L16.3271 6.62228L17.7474 8.74579C17.8965 8.96843 17.9057 9.25649 17.7713 9.48824C17.4711 10.0083 17.2399 10.5653 17.0836 11.1451C17.0141 11.4018 16.8054 11.5972 16.5446 11.6496L14.0352 12.1542V13.8103L16.5453 14.3149C16.8061 14.3674 17.0148 14.5627 17.0843 14.8195C17.2406 15.3993 17.4718 15.9562 17.772 16.4763C17.9064 16.7081 17.8972 16.9961 17.7481 17.2188L16.3236 19.3444L17.4997 20.5142L19.6232 19.0939C19.8459 18.9448 20.1339 18.9356 20.3657 19.07C20.8857 19.3702 21.4427 19.6014 22.0225 19.7577C22.2793 19.8272 22.4746 20.0359 22.5271 20.2967L23.0316 22.8068H24.6878L25.1923 20.2967C25.2448 20.0359 25.4402 19.8272 25.6969 19.7577C26.2767 19.6014 26.8337 19.3702 27.3538 19.07C27.5855 18.9356 27.8736 18.9448 28.0962 19.0939L30.2218 20.5184L31.3916 19.3423L29.9713 17.2188C29.8223 16.9961 29.813 16.7081 29.9474 16.4763C30.2477 15.9562 30.4789 15.3993 30.6352 14.8195C30.7047 14.5627 30.9134 14.3674 31.1741 14.3149L33.6843 13.8103V12.1535L31.1741 11.6489C30.9134 11.5965 30.7047 11.4011 30.6352 11.1444C30.4789 10.5646 30.2477 10.0076 29.9474 9.48754C29.813 9.25579 29.8223 8.96772 29.9713 8.74508L31.3959 6.61947L30.2197 5.45035L28.0962 6.8707C27.8736 7.01973 27.5855 7.02898 27.3538 6.89456C26.8337 6.59433 26.2767 6.36314 25.6969 6.20684C25.4405 6.1371 25.2454 5.92846 25.1931 5.66789ZM28.772 12.9823C28.772 15.6953 26.5727 17.8946 23.8597 17.8946C21.1467 17.8946 18.9474 15.6953 18.9474 12.9823C18.9474 10.2693 21.1467 8.07 23.8597 8.07C26.5714 8.07309 28.7689 10.2706 28.772 12.9823Z" fill="#3B2463"/>
<path d="M31.374 9.17453C31.5677 9.55531 31.732 9.95038 31.8653 10.3563L32.9305 10.5668C34.0264 10.0189 34.6371 8.8205 34.4363 7.61182C34.2356 6.40313 33.2703 5.46652 32.0561 5.30225L32.3838 5.62997C32.8551 6.09984 32.9316 6.83606 32.567 7.39277L31.374 9.17453Z" fill="#3B2463"/>
<path d="M20.3516 12.9824C20.3516 14.9202 21.9225 16.4912 23.8603 16.4912C25.7982 16.4912 27.3691 14.9202 27.3691 12.9824C27.3691 11.0446 25.7982 9.47363 23.8603 9.47363C21.9235 9.47595 20.3539 11.0455 20.3516 12.9824ZM24.5621 12.9824C24.5621 13.37 24.2479 13.6842 23.8603 13.6842C23.4728 13.6842 23.1586 13.37 23.1586 12.9824C23.1586 12.5948 23.4728 12.2807 23.8603 12.2807C24.2479 12.2807 24.5621 12.5948 24.5621 12.9824Z" fill="#3B2463"/>
<path d="M0.446566 24.0245C0.629735 24.1522 0.823141 24.2647 1.02481 24.3606C1.62341 24.6666 2.44306 25.0862 2.61218 25.9416C2.71266 26.472 2.64723 27.0204 2.42481 27.5122C2.30271 27.7725 2.17639 27.9971 2.06622 28.1908C2.03253 28.2511 1.99604 28.3185 1.96025 28.3795C2.25148 28.6139 2.64867 28.9115 2.81709 29.035C2.97028 29.1478 3.07113 29.3179 3.09653 29.5064C3.12193 29.6949 3.06971 29.8857 2.95183 30.035C2.8475 30.1705 2.75677 30.316 2.68095 30.4694C2.73078 30.4988 2.7813 30.5276 2.83183 30.5564C3.45006 30.8232 3.92197 31.3453 4.12516 31.9873C4.22924 32.4883 4.20632 33.0075 4.0585 33.4974C4.02551 33.6413 3.99253 33.7852 3.97218 33.929C3.93459 34.3513 3.99387 34.7766 4.14551 35.1725C4.30117 35.8196 4.93727 36.2306 5.59113 36.1066C7.63618 35.6147 9.65121 35.0055 11.6262 34.282H11.6304C12.361 34.0336 13.0234 33.802 13.5448 33.6202C14.0311 33.4497 14.3981 33.322 14.589 33.2609C17.5062 32.3311 18.0978 31.2806 18.081 30.5627C18.0719 30.1754 18.3785 29.854 18.7659 29.8448C18.9526 29.8378 19.1343 29.9066 19.2695 30.0356C19.4047 30.1646 19.482 30.3428 19.4838 30.5297C19.5252 32.2715 18.022 33.6399 15.0171 34.5999C14.8332 34.6588 14.4781 34.7823 14.008 34.9508L13.3764 35.1711C14.5332 36.4534 15.3774 37.986 15.8431 39.649L31.7603 39.6048L31.7132 39.5346C31.5113 39.2433 31.3296 38.9385 31.1694 38.6223C30.8204 37.9132 30.5291 37.177 30.2985 36.4209C29.8727 34.9845 29.5773 33.5126 29.4157 32.0231C29.139 29.6754 29.4941 27.2963 30.4445 25.1318C31.0047 23.9605 31.6977 22.8573 32.5097 21.8441C32.9167 21.2953 33.3378 20.7283 33.7027 20.1522C34.6747 18.6511 35.197 16.9033 35.208 15.115C35.2122 14.9564 35.208 14.7985 35.2045 14.6406L34.9287 14.456C34.7346 14.8351 34.3784 15.1051 33.961 15.1894L31.8641 15.6104C31.7308 16.0163 31.5666 16.4114 31.3729 16.7922L32.5617 18.5634C32.9347 19.124 32.8569 19.8706 32.3764 20.3424L31.2122 21.5066C30.7423 21.9778 30.0061 22.0543 29.4494 21.6897L27.6676 20.4967C27.2868 20.6905 26.8918 20.8547 26.4859 20.988L26.0648 23.0876C25.9313 23.7417 25.3555 24.2112 24.688 24.2104H23.0318C22.3627 24.2108 21.7865 23.7387 21.655 23.0827L21.2339 20.9859C20.828 20.8526 20.433 20.6883 20.0522 20.4946L18.2788 21.6841C17.7181 22.0552 16.9732 21.9779 16.5006 21.4995L15.3357 20.3346C14.8644 19.8648 14.7879 19.1285 15.1525 18.5718L16.3455 16.7901C16.1518 16.4093 15.9876 16.0142 15.8543 15.6083L13.7546 15.1873C13.1006 15.0537 12.631 14.478 12.6318 13.8104V12.1543C12.6315 11.4852 13.1035 10.9089 13.7595 10.7774L15.8564 10.3564C15.9897 9.95049 16.1539 9.55541 16.3476 9.17463L15.1581 7.4013C14.7851 6.84065 14.8629 6.09411 15.3434 5.62235L16.5076 4.45814C16.9775 3.98689 17.7137 3.9104 18.2704 4.27498L20.0522 5.46796C20.433 5.27425 20.828 5.11002 21.2339 4.97674L21.655 2.87709C21.7885 2.223 22.3643 1.75348 23.0318 1.75428H24.688C24.7809 1.75515 24.8735 1.76502 24.9645 1.78375L25.5399 1.20831C23.6904 0.540822 21.7246 0.255767 19.7617 0.37042C17.5473 0.52613 15.3473 0.843229 13.1792 1.31919C10.3469 1.8806 8.23113 2.88761 6.88867 4.30656C5.78072 5.49436 4.92427 6.89384 4.37078 8.42095C4.11096 9.18049 3.90001 9.95587 3.7392 10.7423C3.56842 11.398 3.33336 12.0353 3.03744 12.6448C2.90551 12.9402 2.77288 13.235 2.6585 13.5353C2.59004 13.6927 2.55148 13.8614 2.54481 14.0329C2.57499 14.2434 2.84376 14.4876 3.12867 14.748C3.70953 15.1561 4.08484 15.7961 4.15744 16.5023C4.14455 16.8358 4.05165 17.1612 3.88657 17.4511C3.00834 19.3005 1.9321 21.0492 0.676741 22.6666C0.142706 23.3171 0.0311273 23.5746 0.0283203 23.6813C0.157077 23.8081 0.297066 23.9229 0.446566 24.0245ZM5.24306 10.3508C5.35334 9.86323 5.49158 9.38243 5.65709 8.91077C6.14491 7.56005 6.90116 6.32208 7.88025 5.27147C9.0199 4.07007 10.8887 3.19989 13.4353 2.69323C13.8155 2.61784 14.1849 2.86495 14.2602 3.24516C14.3356 3.62536 14.0885 3.99469 13.7083 4.07007C11.4529 4.51849 9.83534 5.24761 8.8999 6.23568C8.05186 7.14786 7.39689 8.22198 6.97429 9.39358C6.82731 9.81547 6.70454 10.2454 6.60657 10.6813C6.54803 10.9258 6.36315 11.1204 6.12191 11.1912C5.88067 11.2621 5.61994 11.1985 5.43844 11.0245C5.25694 10.8505 5.18241 10.5927 5.24306 10.3487V10.3508ZM4.91253 12.9823C5.3001 12.9823 5.61429 13.2965 5.61429 13.6841C5.61429 14.0717 5.3001 14.3859 4.91253 14.3859C4.52496 14.3859 4.21078 14.0717 4.21078 13.6841C4.21078 13.2965 4.52496 12.9823 4.91253 12.9823Z" fill="#3B2463"/>
<path d="M26.4862 4.98216C26.8921 5.11545 27.2872 5.27968 27.668 5.47339L29.4413 4.28041C29.7315 4.09117 30.0809 4.01431 30.4237 4.06427C30.8262 3.93131 31.2469 3.86217 31.6708 3.85936C33.3872 3.85358 34.9345 4.89265 35.5786 6.48365C36.2227 8.07465 35.8341 9.89749 34.5971 11.0874C34.9084 11.3544 35.0878 11.744 35.0883 12.1541V12.8713L36.6483 13.9176L37.4273 13.1387L36.3515 11.5344C36.2006 11.3095 36.1927 11.0178 36.3311 10.785C36.5675 10.3833 36.7481 9.95122 36.868 9.50076C36.9375 9.24337 37.1468 9.0476 37.4083 8.9955L39.303 8.61866V7.52111L37.4118 7.14427C37.1503 7.09217 36.941 6.8964 36.8715 6.63901C36.7516 6.18855 36.571 5.75651 36.3346 5.3548C36.1951 5.12265 36.2017 4.83097 36.3515 4.60532L37.428 3.00111L36.649 2.22216L35.0441 3.29795C34.8191 3.44881 34.5274 3.45673 34.2946 3.31831C33.8929 3.08188 33.4609 2.90128 33.0104 2.78146C32.753 2.71195 32.5572 2.50259 32.5051 2.24111L32.1283 0.350586H31.0308L30.6539 2.24532C30.6018 2.5068 30.406 2.71616 30.1487 2.78567C29.6982 2.90549 29.2662 3.08609 28.8644 3.32252C28.6308 3.45968 28.3391 3.45012 28.115 3.29795L26.5108 2.22216L26.0195 2.71339C26.0394 2.76745 26.0555 2.82278 26.068 2.87901L26.4862 4.98216Z" fill="#3B2463"/>
</g>
<defs>
<clipPath id="clip0_385_1086">
<rect width="40" height="40" fill="white"/>
</clipPath>
</defs>
</svg>
