<svg width="41" height="40" viewBox="0 0 41 40" fill="none" xmlns="http://www.w3.org/2000/svg">
<g clip-path="url(#clip0_385_1100)">
<path d="M20.667 11.7578C17.4363 11.7578 14.8076 9.12914 14.8076 5.89844C14.8076 2.66773 17.4363 0.0390625 20.667 0.0390625C23.8977 0.0390625 26.5264 2.66773 26.5264 5.89844C26.5264 9.12914 23.8977 11.7578 20.667 11.7578Z" fill="#3B2463"/>
<path d="M1.4503 33.5157C-0.164466 30.7177 0.797956 27.1276 3.59608 25.5117C6.45163 23.8645 10.0088 24.9019 11.6001 27.6564C13.219 30.4587 12.2594 34.0405 9.45545 35.6603C6.64608 37.2804 3.06819 36.3163 1.4503 33.5157Z" fill="#3B2463"/>
<path d="M31.8786 35.6604C29.0765 34.0415 28.1142 30.4603 29.734 27.6564C31.3252 24.902 34.8823 23.8644 37.738 25.5118C40.536 27.1277 41.4985 30.7177 39.8838 33.5157C38.2679 36.3128 34.692 37.2828 31.8786 35.6604Z" fill="#3B2463"/>
<path d="M5.45535 21.5301L3.11621 21.4019C3.42059 15.8584 6.38238 10.7269 11.0378 7.67358L12.3241 9.6328C8.28777 12.2799 5.72082 16.7282 5.45535 21.5301Z" fill="#3B2463"/>
<path d="M35.8785 21.5303C35.613 16.7284 33.0461 12.2801 29.0098 9.63305L30.2961 7.67383C34.9516 10.7271 37.9133 15.8587 38.2177 21.4022L35.8785 21.5303Z" fill="#3B2463"/>
<path d="M20.6671 39.9609C17.8793 39.9609 15.2139 39.3269 12.7432 38.0783L13.8006 35.9863C18.0807 38.1516 23.2534 38.1516 27.5335 35.9863L28.5909 38.0783C26.1202 39.3269 23.4549 39.9609 20.6671 39.9609Z" fill="#3B2463"/>
</g>
<defs>
<clipPath id="clip0_385_1100">
<rect width="40" height="40" fill="white" transform="translate(0.666992)"/>
</clipPath>
</defs>
</svg>
