<svg width="41" height="40" viewBox="0 0 41 40" fill="none" xmlns="http://www.w3.org/2000/svg">
<path d="M11.5915 6.47227L11.5896 6.47037L11.5972 6.4818L11.5991 6.48561L11.5915 6.47227ZM25.7038 13.0989C23.9419 9.97132 19.9648 8.86085 16.8277 10.617C13.6924 12.3732 12.5781 16.337 14.3381 19.4627C16.1 22.5904 20.0791 23.7008 23.2143 21.9427C26.3496 20.1866 27.4657 16.2227 25.7038 13.0989ZM20.8105 17.678C20.0353 18.1123 19.0543 17.838 18.62 17.0647C18.2981 16.4932 18.3648 15.8113 18.7324 15.318L17.6105 13.4456C17.4334 13.1485 17.5305 12.7656 17.8257 12.5885C18.1229 12.4113 18.5057 12.5085 18.6829 12.8037L19.8105 14.6894C20.4429 14.6056 21.0924 14.9066 21.4238 15.4951C21.86 16.2666 21.5838 17.2437 20.8105 17.678ZM25.7038 13.0989C23.9419 9.97132 19.9648 8.86085 16.8277 10.617C13.6924 12.3732 12.5781 16.337 14.3381 19.4627C16.1 22.5904 20.0791 23.7008 23.2143 21.9427C26.3496 20.1866 27.4657 16.2227 25.7038 13.0989ZM20.8105 17.678C20.0353 18.1123 19.0543 17.838 18.62 17.0647C18.2981 16.4932 18.3648 15.8113 18.7324 15.318L17.6105 13.4456C17.4334 13.1485 17.5305 12.7656 17.8257 12.5885C18.1229 12.4113 18.5057 12.5085 18.6829 12.8037L19.8105 14.6894C20.4429 14.6056 21.0924 14.9066 21.4238 15.4951C21.86 16.2666 21.5838 17.2437 20.8105 17.678ZM29.2829 11.0875C28.3648 9.45894 27.0772 8.1637 25.5819 7.25132C24.0886 6.33894 22.3877 5.80751 20.6448 5.70275V5.0418L21.2505 5.04942C22.041 5.05894 22.6886 4.42656 22.6962 3.63799L22.7 3.34465C22.7096 2.55608 22.0772 1.91037 21.2867 1.90084L19.0867 1.87608C18.2962 1.86656 17.6505 2.49894 17.641 3.28751L17.6372 3.58084C17.6277 4.36751 18.2581 5.01513 19.0505 5.02465L19.3953 5.02846V5.70275C18.0296 5.78084 16.6619 6.12561 15.3667 6.75418L15.041 6.17132L15.4524 5.94084C16.1419 5.55418 16.3857 4.6837 15.9991 3.99608L15.8543 3.73894C15.4677 3.05323 14.5972 2.80751 13.9077 3.19418L11.9915 4.26846C11.3019 4.65513 11.0581 5.52561 11.4467 6.21323L11.5934 6.47227C11.5953 6.47608 11.5972 6.47799 11.5991 6.4818C11.9896 7.15799 12.8543 7.39799 13.5381 7.01323L13.9534 6.78084L14.2829 7.3637C9.58194 10.3694 7.99146 16.5542 10.7629 21.4704C13.6353 26.5675 20.1191 28.3789 25.2296 25.5161C30.34 22.6513 32.1572 16.1866 29.2829 11.0875ZM23.8258 23.0323C20.0886 25.1256 15.3496 23.7999 13.2486 20.0742C11.1477 16.3466 12.4753 11.6208 16.2143 9.52561C19.9515 7.43227 24.6905 8.75799 26.7915 12.4837C28.8943 16.2113 27.5648 20.9389 23.8258 23.0323ZM16.8277 10.617C13.6924 12.3732 12.5781 16.337 14.3381 19.4627C16.1 22.5904 20.0791 23.7008 23.2143 21.9427C26.3496 20.1866 27.4638 16.2227 25.7019 13.0989C23.9419 9.97132 19.9629 8.86085 16.8277 10.617ZM20.8105 17.678C20.0353 18.1123 19.0543 17.838 18.62 17.0647C18.2981 16.4932 18.3648 15.8113 18.7324 15.318L17.6105 13.4456C17.4334 13.1485 17.5305 12.7656 17.8257 12.5885C18.1229 12.4113 18.5057 12.5085 18.6829 12.8037L19.8105 14.6894C20.4429 14.6056 21.0924 14.9066 21.4238 15.4951C21.86 16.2666 21.5838 17.2437 20.8105 17.678ZM38.6219 32.718L34.8715 28.3427C34.7534 28.2056 34.58 28.1256 34.3972 28.1256H30.2886L32.4753 32.8647C32.5515 33.0304 32.5515 33.2227 32.4753 33.3885L30.2886 38.1275H34.3972C34.58 38.1275 34.7534 38.0475 34.8715 37.9085L38.6219 33.5332C38.8219 33.297 38.8219 32.9523 38.6219 32.718ZM28.9115 28.1256H23.6181L25.8048 32.8647C25.881 33.0304 25.881 33.2227 25.8048 33.3885L23.6181 38.1275H28.9115L31.2181 33.1275L28.9115 28.1256ZM22.241 28.1256H16.9477L19.1343 32.8627C19.2105 33.0285 19.2105 33.2208 19.1343 33.3866L16.9477 38.1256H22.241L24.5496 33.1256L22.241 28.1256ZM15.5705 28.1256H10.2772L12.4638 32.8647C12.54 33.0304 12.54 33.2227 12.4638 33.3885L10.2772 38.1256H15.5705L17.8772 33.1256L15.5705 28.1256ZM8.90003 28.1256H2.52099C2.29813 28.1256 2.09241 28.2437 1.98003 28.4361C1.86765 28.6285 1.86765 28.8666 1.97813 29.0608L4.30003 33.1256L1.98003 37.1904C1.86956 37.3827 1.86956 37.6208 1.98194 37.8132C2.09432 38.0056 2.30003 38.1237 2.52289 38.1237H8.90194L11.2105 33.1237L8.90003 28.1256Z" fill="#3B2463"/>
</svg>
