<svg width="40" height="40" viewBox="0 0 40 40" fill="none" xmlns="http://www.w3.org/2000/svg">
<g clip-path="url(#clip0_385_1129)">
<path d="M32.9418 8.33148C32.9534 8.22148 32.9629 8.11078 32.9681 7.99883C33.1113 4.92539 30.7377 2.31773 27.6664 2.17445C27.5784 2.17039 27.4906 2.16828 27.4033 2.16828C26.2734 2.16828 25.2161 2.50898 24.3326 3.09586C23.0759 1.31797 21.0429 0.117344 18.7008 0.008125C18.5849 0.00265625 18.4693 2.02621e-09 18.3545 2.02621e-09C15.017 -7.8123e-05 12.159 2.25906 11.3069 5.38445C10.5864 5.14859 9.82282 5.00445 9.02876 4.96742C8.89266 4.96109 8.75634 4.95789 8.62149 4.95789C4.05579 4.9575 0.252664 8.55164 0.0378203 13.1633C-0.136711 16.9101 2.11032 20.2082 5.39727 21.5414C5.41743 22.898 5.99743 24.1305 6.9243 25.0053C8.05126 24.1222 9.46829 23.5938 11.0072 23.5938C14.3623 23.5938 17.142 26.0989 17.5809 29.3379C17.6095 29.3396 17.638 29.3421 17.6667 29.3434C17.7615 29.3479 17.8559 29.3501 17.9499 29.3501C20.252 29.3501 22.2744 28.0355 23.2706 26.0906C24.2598 27.1273 25.6324 27.8006 27.1761 27.8727C27.2675 27.877 27.359 27.8791 27.4495 27.8791C30.2129 27.8791 32.5598 25.9184 33.1018 23.264C36.8116 22.9796 39.8134 19.9658 39.9912 16.1512C40.1825 12.0467 37.0322 8.56125 32.9418 8.33148Z" fill="#3B2463"/>
<path d="M2.73242 40C4.2415 40 5.46484 38.7758 5.46484 37.2656C5.46484 35.7555 4.2415 34.5312 2.73242 34.5312C1.22335 34.5312 0 35.7555 0 37.2656C0 38.7758 1.22335 40 2.73242 40Z" fill="#3B2463"/>
<path d="M11.0076 34.5312C13.379 34.5312 15.3014 32.6075 15.3014 30.2344C15.3014 27.8613 13.379 25.9375 11.0076 25.9375C8.63624 25.9375 6.71387 27.8613 6.71387 30.2344C6.71387 32.6075 8.63624 34.5312 11.0076 34.5312Z" fill="#3B2463"/>
</g>
<defs>
<clipPath id="clip0_385_1129">
<rect width="40" height="40" fill="white"/>
</clipPath>
</defs>
</svg>
