<svg width="40" height="40" viewBox="0 0 40 40" fill="none" xmlns="http://www.w3.org/2000/svg">
<path d="M4.62433 20.1552C5.44464 17.729 6.07886 15.248 6.50933 12.7812C7.7805 5.49631 14.0761 0.121857 21.4789 0.00209118C25.6227 -0.0654088 29.5467 1.50319 32.5276 4.4174C35.5064 7.32967 37.1615 11.2135 37.1882 15.3535C37.2155 19.6046 35.4867 23.6774 32.4275 26.6114V40H13.4202V34.9104H8.09464L7.24964 26.6086L2.81175 25.5163L4.62433 20.1552ZM23.7218 11.9876L22.8037 14.1442L29.2731 16.8983L32.0272 10.4289L29.8707 9.51084L28.9561 11.6592C27.5909 8.91983 24.7607 7.03319 21.4978 7.03319C18.5341 7.03319 15.7703 8.62834 14.2848 11.1961L16.3135 12.3697C17.3815 10.5237 19.368 9.37686 21.4978 9.37686C24.1311 9.37686 26.371 11.0874 27.1689 13.4552L23.7218 11.9876ZM21.4978 23.689C24.4615 23.689 27.2253 22.0938 28.7108 19.5259L26.6821 18.3524C25.6141 20.1985 23.6276 21.3453 21.4978 21.3453C18.8645 21.3453 16.6246 19.6347 15.8267 17.2669L19.2739 18.7345L20.192 16.578L13.7226 13.8238L10.9685 20.2932L13.125 21.2113L14.0396 19.063C15.4047 21.8023 18.2349 23.689 21.4978 23.689Z" fill="#3B2463"/>
</svg>
