<svg width="40" height="40" viewBox="0 0 40 40" fill="none" xmlns="http://www.w3.org/2000/svg">
<path d="M24.5254 8.58105H24.5304V8.59293H24.5254V8.58105Z" fill="#3B2463"/>
<path d="M29.3086 7.51465H32.5108V10.7168H29.3086V7.51465Z" fill="#3B2463"/>
<path d="M33.959 10.6387H37.1612V13.8409H33.959V10.6387Z" fill="#3B2463"/>
<path d="M31.4854 28.0083H34.6875V31.2105H31.4854V28.0083Z" fill="#3B2463"/>
<path d="M29.2197 21.7842H32.4219V24.9864H29.2197V21.7842Z" fill="#3B2463"/>
<path d="M26.1465 26.0029H29.3487V29.2051H26.1465V26.0029Z" fill="#3B2463"/>
<path d="M25.3008 5.20898H28.503V8.41117H25.3008V5.20898Z" fill="#3B2463"/>
<path d="M29.5059 14.4536H32.708V17.6558H29.5059V14.4536Z" fill="#3B2463"/>
<path d="M25.6719 17.5225H28.8741V20.7246H25.6719V17.5225Z" fill="#3B2463"/>
<path d="M25.4592 24.6098V21.4058L22.2539 21.4083V24.6098H25.4592Z" fill="#3B2463"/>
<path d="M29.3251 36.8179C28.754 34.9222 28.3517 32.9796 28.1229 31.0129H24.5188V27.8123H21.3173V24.6101H18.1151V21.4079H21.3173V18.177H24.5223V14.9895H27.7232V11.7867L24.5257 11.7833V8.59356L21.3151 8.59169V5.38888L24.521 5.38106V3.11137C22.9903 2.61613 21.3999 2.32917 19.7926 2.25825C11.9398 1.852 5.21446 6.89575 5.43103 13.852C5.45946 14.7701 5.62009 16.1223 5.61634 17.0057C5.60915 20.1439 2.89384 21.4329 2.84165 22.4317C2.75571 24.0717 4.68228 23.5595 5.36165 25.8795C6.22415 28.8248 4.98665 32.1836 9.00165 31.9761C10.6032 31.9117 13.206 31.2901 14.3213 32.3273C15.0326 32.9886 15.6054 35.8748 15.8288 37.152C15.859 37.3237 15.9488 37.4792 16.0824 37.5911C16.216 37.703 16.3849 37.7642 16.5592 37.7639H28.612C28.7269 37.7642 28.8403 37.7377 28.9433 37.6866C29.0462 37.6354 29.1359 37.561 29.2051 37.4692C29.2743 37.3774 29.3211 37.2708 29.342 37.1577C29.3628 37.0447 29.357 36.9284 29.3251 36.8179ZM15.122 11.7967H11.9198V8.59356H15.122V11.7967ZM18.322 9.81794H21.5242V13.0201H18.322V9.81794ZM15.926 17.3436V14.1411H19.1282V17.3436H15.926ZM19.962 31.7708H16.7598V28.5679H19.962V31.7708Z" fill="#3B2463"/>
</svg>
