<svg width="41" height="40" viewBox="0 0 41 40" fill="none" xmlns="http://www.w3.org/2000/svg">
<g clip-path="url(#clip0_385_1194)">
<path d="M20.3343 39.9998C22.0622 39.9998 23.5543 38.9739 24.2359 37.4998H16.4326C17.1143 38.9739 18.6063 39.9998 20.3343 39.9998Z" fill="#3B2463"/>
<path d="M19.162 29.6873V20.2102C16.4908 19.7384 14.4746 17.6866 14.4746 15.2343C14.4746 14.5871 14.9992 14.0624 15.6464 14.0624C16.2936 14.0624 16.8183 14.5871 16.8183 15.2343C16.8183 16.4225 17.7981 17.4356 19.162 17.8118V0.800933C18.3577 0.28578 17.4136 0 16.4277 0C13.9632 0 11.8611 1.77944 11.4329 4.18107C8.61077 5.00638 6.66211 7.58753 6.66211 10.5468C6.66211 12.1291 7.22226 13.6413 8.24679 14.8437C7.22234 16.046 6.66211 17.5582 6.66211 19.1405C6.66211 22.0999 8.61077 24.681 11.4329 25.5063C11.861 27.9078 13.9632 29.6873 16.4277 29.6873H19.162Z" fill="#3B2463"/>
<path d="M14.4746 33.2031C14.4746 34.2818 15.3491 35.1562 16.4277 35.1562H24.2402C25.3189 35.1562 26.1934 34.2818 26.1934 33.2031V32.0312H14.4746V33.2031Z" fill="#3B2463"/>
<path d="M29.235 4.18107C28.8069 1.77952 26.7047 0 24.2402 0C23.2543 0 22.3102 0.28578 21.5059 0.800933V9.47721C24.1771 9.949 26.1933 12.0008 26.1933 14.4531C26.1933 15.1003 25.6686 15.625 25.0215 15.625C24.3743 15.625 23.8496 15.1003 23.8496 14.4531C23.8496 13.2649 22.8698 12.2518 21.5059 11.8756V29.6874H24.2402C26.7047 29.6874 28.8069 27.908 29.235 25.5063C32.0571 24.681 34.0058 22.0999 34.0058 19.1406C34.0058 17.5583 33.4456 16.0461 32.4212 14.8437C33.4456 13.6414 34.0058 12.1292 34.0058 10.5469C34.0059 7.58753 32.0571 5.00646 29.235 4.18107Z" fill="#3B2463"/>
<path d="M36.8196 6.64075C36.4409 6.64075 36.0693 6.45747 35.8434 6.11872C35.4844 5.5802 35.63 4.85262 36.1685 4.49364L38.5122 2.93114C39.0507 2.572 39.7783 2.71762 40.1373 3.25614C40.4963 3.79465 40.3507 4.52223 39.8122 4.88122L37.4685 6.44372C37.2688 6.57692 37.0429 6.64075 36.8196 6.64075Z" fill="#3B2463"/>
<path d="M39.1612 26.1719C38.9379 26.1719 38.712 26.1081 38.5122 25.9749L36.1685 24.4124C35.63 24.0534 35.4844 23.3259 35.8434 22.7873C36.2025 22.2487 36.9301 22.1034 37.4685 22.4623L39.8122 24.0248C40.3507 24.3838 40.4963 25.1114 40.1373 25.6499C39.9115 25.9886 39.5399 26.1719 39.1612 26.1719Z" fill="#3B2463"/>
<path d="M3.84871 6.6409C3.62535 6.6409 3.39949 6.57715 3.19973 6.44395L0.855976 4.88145C0.317461 4.52246 0.171914 3.79488 0.530898 3.25637C0.889961 2.71777 1.61762 2.57231 2.15598 2.93137L4.49973 4.49387C5.03824 4.85285 5.18379 5.58043 4.8248 6.11895C4.59902 6.45762 4.22738 6.6409 3.84871 6.6409Z" fill="#3B2463"/>
<path d="M1.50707 26.172C1.1284 26.172 0.756758 25.9887 0.530898 25.65C0.171914 25.1114 0.317461 24.3839 0.855976 24.0249L3.19973 22.4624C3.73816 22.1032 4.46582 22.2489 4.8248 22.7874C5.18379 23.3259 5.03824 24.0535 4.49973 24.4125L2.15598 25.975C1.95629 26.1082 1.73043 26.172 1.50707 26.172Z" fill="#3B2463"/>
<path d="M3.84961 15.625H1.50586C0.858672 15.625 0.333984 15.1003 0.333984 14.4531C0.333984 13.8059 0.858672 13.2812 1.50586 13.2812H3.84961C4.4968 13.2812 5.02148 13.8059 5.02148 14.4531C5.02148 15.1003 4.4968 15.625 3.84961 15.625Z" fill="#3B2463"/>
<path d="M39.1621 15.625H36.8184C36.1712 15.625 35.6465 15.1003 35.6465 14.4531C35.6465 13.8059 36.1712 13.2812 36.8184 13.2812H39.1621C39.8093 13.2812 40.334 13.8059 40.334 14.4531C40.334 15.1003 39.8093 15.625 39.1621 15.625Z" fill="#3B2463"/>
</g>
<defs>
<clipPath id="clip0_385_1194">
<rect width="40" height="40" fill="white" transform="translate(0.333984)"/>
</clipPath>
</defs>
</svg>
