<svg width="40" height="40" viewBox="0 0 40 40" fill="none" xmlns="http://www.w3.org/2000/svg">
<g clip-path="url(#clip0_385_1166)">
<path d="M21.9404 25.1142C21.7175 25.0344 21.4676 25.09 21.3007 25.2585L13.4164 33.1421C12.5419 34.017 11.3774 34.4976 10.1372 34.4976C8.89707 34.4976 7.73299 34.0161 6.85891 33.1421C5.05103 31.3334 5.05103 28.3917 6.85891 26.5838L14.742 18.7015C14.9097 18.5338 14.9657 18.2843 14.886 18.0614C14.8062 17.838 14.6046 17.6806 14.369 17.6577L8.86476 17.1108C8.68029 17.0895 8.50032 17.157 8.37025 17.2875L2.96583 22.6915C1.05323 24.6037 0 27.1507 0 29.8629C0 32.5751 1.05323 35.1217 2.96583 37.0343C4.87801 38.9469 7.425 40.0001 10.1372 40.0001C12.8495 40.0001 15.3964 38.9469 17.309 37.0343L22.7135 31.6303C22.8435 31.5006 22.9086 31.3182 22.8902 31.1358L22.3441 25.6312C22.3204 25.3956 22.1641 25.1943 21.9404 25.1142Z" fill="#3B2463"/>
<path d="M37.0343 2.96583C35.1217 1.05323 32.5747 0 29.8624 0C27.1502 0 24.6032 1.05323 22.691 2.96583L17.2862 8.37025C17.1561 8.49991 17.0911 8.68192 17.1095 8.86476L17.6564 14.3694C17.6797 14.6054 17.8372 14.8066 18.0605 14.8864C18.2838 14.9666 18.5329 14.9105 18.7006 14.7424L26.5833 6.8585C27.4578 5.98401 28.6223 5.50259 29.8624 5.50259C31.1026 5.50259 32.2671 5.98442 33.142 6.8585C34.9499 8.66638 34.9499 11.6081 33.142 13.4164L25.2585 21.2995C25.0908 21.4672 25.0347 21.7171 25.1145 21.94C25.1943 22.1629 25.3959 22.3204 25.6315 22.3433L31.1353 22.8902C31.1558 22.893 31.1758 22.8938 31.1954 22.8938C31.3574 22.8938 31.5137 22.83 31.6298 22.7143L37.0343 17.3094C40.9883 13.355 40.9883 6.92026 37.0343 2.96583Z" fill="#3B2463"/>
<path d="M3.61657 15.4187C3.62025 15.4187 3.62393 15.4187 3.62721 15.4187L10.2509 15.3033C10.554 15.298 10.808 15.0722 10.8481 14.7712C10.8882 14.4705 10.7029 14.1854 10.4117 14.1004L4.05177 12.2459C3.87998 12.1955 3.6947 12.223 3.5454 12.3211C3.3957 12.4185 3.2959 12.5764 3.27217 12.7539L3.00835 14.7237C2.98463 14.9012 3.03944 15.0796 3.15847 15.2129C3.27463 15.3438 3.44151 15.4187 3.61657 15.4187Z" fill="#3B2463"/>
<path d="M14.101 10.4111C14.1779 10.6753 14.4205 10.8528 14.6896 10.8528C14.7166 10.8528 14.744 10.8512 14.7714 10.8471C15.072 10.807 15.2982 10.553 15.3035 10.2499L15.4185 3.6262C15.4213 3.44705 15.3465 3.27608 15.2127 3.15746C15.079 3.03884 14.9007 2.98362 14.7231 3.00817L12.7533 3.27321C12.5762 3.29694 12.4183 3.39715 12.3209 3.54685C12.2236 3.69655 12.1962 3.88143 12.2461 4.05281L14.101 10.4111Z" fill="#3B2463"/>
<path d="M36.3739 24.5816L29.7506 24.6965C29.4471 24.7022 29.1935 24.9272 29.153 25.2287C29.1125 25.5293 29.2978 25.8144 29.589 25.8999L35.9489 27.7548C36.0058 27.7707 36.063 27.7793 36.1207 27.7793C36.2389 27.7793 36.3547 27.7454 36.4553 27.6799C36.605 27.5826 36.7044 27.4247 36.7285 27.2468L36.9927 25.2773C37.0165 25.0994 36.9617 24.9215 36.8426 24.7881C36.7236 24.6532 36.5449 24.5738 36.3739 24.5816Z" fill="#3B2463"/>
<path d="M25.8986 29.5894C25.8139 29.2982 25.5313 29.1092 25.2282 29.1534C24.928 29.1943 24.7018 29.4479 24.6961 29.7509L24.5811 36.3734C24.5783 36.5526 24.6531 36.7236 24.7865 36.8422C24.8994 36.9428 25.0454 36.9976 25.1947 36.9976C25.2217 36.9976 25.2491 36.9956 25.2765 36.9915L27.2459 36.7272C27.4234 36.7035 27.5813 36.6037 27.6791 36.454C27.7764 36.3039 27.8038 36.119 27.7543 35.9481L25.8986 29.5894Z" fill="#3B2463"/>
</g>
<defs>
<clipPath id="clip0_385_1166">
<rect width="40" height="40" fill="white"/>
</clipPath>
</defs>
</svg>
