<svg width="40" height="40" viewBox="0 0 40 40" fill="none" xmlns="http://www.w3.org/2000/svg">
<path d="M14.331 8.62H25.628H25.6295C26.2768 8.62 26.8014 8.09509 26.8014 7.44812C26.8014 7.3465 26.7885 7.24823 26.7644 7.15454L25.5218 0.942078C25.4122 0.394287 24.9312 0 24.3728 0H15.5861C15.0277 0 14.5467 0.394287 14.4372 0.942078L13.182 7.21832C13.113 7.56256 13.2024 7.91931 13.4249 8.19092C13.6474 8.46252 13.98 8.62 14.331 8.62Z" fill="#3B2463"/>
<path d="M30.6485 5.02051H28.7274L29.053 6.64893C29.1141 6.91046 29.1449 7.17871 29.1449 7.44788C29.1449 9.38635 27.5677 10.9635 25.6277 10.9635H14.3307C13.2733 10.9635 12.2824 10.4944 11.6122 9.67688C10.9418 8.85901 10.676 7.79517 10.8835 6.75848L11.2311 5.02081H9.31C6.93359 5.02081 5 6.9541 5 9.33051V35.6901C5 38.0665 6.93359 39.9998 9.31 39.9998H30.6485C33.0249 39.9998 34.9585 38.0665 34.9585 35.6901V9.33051C34.9585 6.9541 33.0249 5.02051 30.6485 5.02051ZM12.4481 13.7235H21.2344C21.8817 13.7235 22.4063 14.2484 22.4063 14.8954C22.4063 15.5427 21.8817 16.0673 21.2344 16.0673H12.4481C11.8008 16.0673 11.2762 15.5427 11.2762 14.8954C11.2762 14.2484 11.8008 13.7235 12.4481 13.7235ZM13.6197 21.1713C13.6197 21.4799 13.4946 21.7823 13.2767 22.0002C13.0588 22.2181 12.7563 22.3432 12.4478 22.3432C12.1399 22.3432 11.8375 22.2181 11.6196 22.0002C11.4017 21.7823 11.2766 21.4799 11.2766 21.1713C11.2766 20.8628 11.4017 20.5613 11.6196 20.3431C11.8375 20.1246 12.1399 19.9995 12.4478 19.9995C12.7563 19.9995 13.0588 20.1246 13.2767 20.3431C13.4946 20.5613 13.6197 20.8628 13.6197 21.1713ZM13.2767 34.5527C13.0588 34.7706 12.7563 34.8954 12.4484 34.8954C12.1399 34.8954 11.8375 34.7706 11.6196 34.5527C11.4017 34.3339 11.2759 34.0323 11.2759 33.7235C11.2759 33.4153 11.4017 33.1135 11.6196 32.895C11.8375 32.6768 12.1399 32.5516 12.4484 32.5516C12.7563 32.5516 13.0588 32.6768 13.2767 32.895C13.4946 33.1135 13.6197 33.4153 13.6197 33.7235C13.6197 34.0323 13.4946 34.3339 13.2767 34.5527ZM13.2767 28.2761C13.0588 28.4946 12.7563 28.6198 12.4478 28.6198C12.1399 28.6198 11.8375 28.4946 11.6196 28.2761C11.4008 28.0579 11.2759 27.7564 11.2759 27.4479C11.2759 27.1393 11.4008 26.8369 11.6196 26.619C11.8375 26.4011 12.1399 26.276 12.4478 26.276C12.7563 26.276 13.0588 26.4011 13.2767 26.619C13.4946 26.8369 13.6203 27.1393 13.6203 27.4479C13.6203 27.7558 13.4946 28.0582 13.2767 28.2761ZM27.5104 34.8954H18.7241C18.0768 34.8954 17.5522 34.3708 17.5522 33.7235C17.5522 33.0765 18.0768 32.5516 18.7241 32.5516H27.5104C28.1577 32.5516 28.6823 33.0765 28.6823 33.7235C28.6823 34.3708 28.1577 34.8954 27.5104 34.8954ZM27.5104 28.6194H18.7241C18.0768 28.6194 17.5522 28.0948 17.5522 27.4476C17.5522 26.8006 18.0768 26.2757 18.7241 26.2757H27.5104C28.1577 26.2757 28.6823 26.8006 28.6823 27.4476C28.6823 28.0948 28.1577 28.6194 27.5104 28.6194ZM27.5104 22.3435H18.7241C18.0768 22.3435 17.5522 21.8189 17.5522 21.1716C17.5522 20.5244 18.0768 19.9998 18.7241 19.9998H27.5104C28.1577 19.9998 28.6823 20.5244 28.6823 21.1716C28.6823 21.8189 28.1577 22.3435 27.5104 22.3435Z" fill="#3B2463"/>
</svg>
