<svg width="41" height="40" viewBox="0 0 41 40" fill="none" xmlns="http://www.w3.org/2000/svg">
<path fill-rule="evenodd" clip-rule="evenodd" d="M25.4907 37.7349C25.7854 38.2112 26.2566 38.5516 26.8015 38.6816C27.3463 38.8115 27.9204 38.7206 28.3984 38.4286C28.8764 38.1367 29.2194 37.6674 29.3525 37.1233C29.4856 36.5792 29.398 36.0046 29.1087 35.5249L24.2532 27.6471L23.2341 23.5238C23.1853 23.5809 23.1374 23.6383 23.0899 23.6964L19.7968 27.2384L20.2002 28.8688C20.2466 29.1275 20.3409 29.3752 20.4781 29.5994L25.4907 37.7349ZM9.29397 35.8539L12.4494 27.4962C12.5602 27.2008 12.7351 26.9338 12.9615 26.7141L17.8922 21.2556V12.3C17.8935 11.6208 18.1639 10.9698 18.6442 10.4895C19.1244 10.0092 19.7755 9.73882 20.4547 9.7375C21.1452 9.7375 21.438 9.92852 21.9992 10.2095L32.6562 16.3623C32.8707 16.4866 33.0587 16.6519 33.2094 16.8489C33.3601 17.0458 33.4705 17.2705 33.5343 17.5101C33.5982 17.7497 33.6142 17.9995 33.5815 18.2453C33.5488 18.4911 33.468 18.7281 33.3437 18.9427C33.2195 19.1572 33.0541 19.3452 32.8572 19.4959C32.6603 19.6466 32.4356 19.757 32.196 19.8208C31.9564 19.8847 31.7065 19.9007 31.4607 19.868C31.2149 19.8353 30.978 19.7545 30.7634 19.6302L23.017 15.1578V21.1668C23.017 22.2719 22.8753 22.2299 22.265 22.9771L16.3173 29.3743L13.3016 37.3627C13.1015 37.8941 12.6985 38.3242 12.1813 38.5585C11.664 38.7927 11.0749 38.8119 10.5435 38.6118C10.0121 38.4117 9.58199 38.0087 9.34774 37.4914C9.1135 36.9742 9.09432 36.3851 9.29444 35.8537L9.29397 35.8539ZM19.4625 1.25C18.8438 1.25 18.2391 1.43345 17.7247 1.77714C17.2103 2.12084 16.8094 2.60935 16.5727 3.1809C16.3359 3.75245 16.274 4.38136 16.3947 4.98811C16.5154 5.59486 16.8133 6.1522 17.2507 6.58964C17.6882 7.02709 18.2455 7.32499 18.8523 7.44568C19.459 7.56637 20.0879 7.50443 20.6595 7.26768C21.231 7.03094 21.7195 6.63003 22.0632 6.11565C22.4069 5.60127 22.5904 4.99653 22.5904 4.37789C22.5904 3.54832 22.2608 2.75273 21.6742 2.16614C21.0876 1.57954 20.2921 1.25 19.4625 1.25ZM16.7984 17.8641V12.3841L14.3181 14.9297L9.1335 16.3915C8.65282 16.5248 8.24444 16.843 7.99754 17.2764C7.75063 17.7098 7.68527 18.2234 7.81571 18.7048C7.94616 19.1863 8.26182 19.5966 8.69376 19.8461C9.1257 20.0956 9.63883 20.1641 10.1211 20.0366L15.999 18.4453C16.1984 18.3938 16.3798 18.2884 16.5233 18.1406L16.7984 17.8641Z" fill="#3B2463"/>
</svg>
