<svg width="40" height="40" viewBox="0 0 40 40" fill="none" xmlns="http://www.w3.org/2000/svg">
<path d="M16.4956 11.6898C15.8617 11.3237 14.962 11.3864 14.2549 11.539C14.4762 12.2269 14.8718 13.0376 15.506 13.4038C15.9455 13.6576 16.515 13.7042 17.0575 13.6587C17.1779 13.3927 17.324 13.1409 17.4932 12.9065C17.2614 12.4133 16.9363 11.9442 16.4956 11.6898Z" fill="#3B2463"/>
<path d="M15.5059 17.4915C14.8723 17.8573 14.476 18.6721 14.2549 19.3565C14.9612 19.5087 15.8611 19.5717 16.4955 19.2054C16.9354 18.9515 17.2607 18.4809 17.4927 17.9879C17.3236 17.7535 17.1775 17.5017 17.0571 17.2357C16.5145 17.19 15.9463 17.2372 15.5059 17.4915Z" fill="#3B2463"/>
<path d="M21.0248 11.0938C21.172 11.0938 21.3177 11.1014 21.4613 11.1157C21.7717 10.6689 22.0144 10.1537 22.0144 9.64582C22.0144 8.91418 21.5069 8.16355 21.0247 7.62988C20.5396 8.16543 20.0352 8.91348 20.0352 9.64582C20.0352 10.1536 20.2778 10.6686 20.5884 11.1156C20.732 11.1014 20.8775 11.0938 21.0248 11.0938Z" fill="#3B2463"/>
<path d="M26.5439 13.4039C27.1778 13.0378 27.5733 12.2275 27.7948 11.5388C27.0884 11.3866 26.1886 11.3236 25.5542 11.6898C25.1137 11.9442 24.7885 12.4132 24.5566 12.9068C24.7259 13.1414 24.8721 13.3933 24.9926 13.6595C25.5353 13.7051 26.1036 13.658 26.5439 13.4039Z" fill="#3B2463"/>
<path d="M21.0248 19.8012C20.8775 19.8012 20.7319 19.7936 20.5884 19.7793C20.2779 20.2262 20.0352 20.7413 20.0352 21.2492C20.0352 21.9812 20.5391 22.7288 21.0249 23.2651C21.5099 22.7295 22.0144 21.9816 22.0144 21.2492C22.0144 20.7422 21.7705 20.2262 21.4603 19.7794C21.317 19.7937 21.1718 19.8012 21.0248 19.8012Z" fill="#3B2463"/>
<path d="M26.5439 17.4913C26.1036 17.2372 25.5355 17.1899 24.9927 17.2357C24.8722 17.502 24.7259 17.7539 24.5566 17.9885C24.7885 18.4818 25.1137 18.9509 25.5543 19.2053C26.1882 19.5714 27.0879 19.5088 27.795 19.3561C27.5736 18.6683 27.1781 17.8574 26.5439 17.4913Z" fill="#3B2463"/>
<path d="M21.1888 0C12.5951 0 5.60354 6.99156 5.60354 15.5853V17.6327L3.27697 25.3266C3.09494 25.9287 3.42072 26.5672 4.0151 26.7732L7.98025 28.147V33.6558C7.98025 34.303 8.50494 34.8277 9.15213 34.8277H15.1104V38.8281C15.1104 39.4753 15.6351 40 16.2823 40H30.5424C31.1896 40 31.7143 39.4753 31.7143 38.8281V27.0786C34.9367 24.1266 36.7742 19.9687 36.7742 15.5853C36.7742 6.99156 29.7826 0 21.1888 0ZM24.3831 21.2351C24.3746 21.2301 24.3665 21.2245 24.3579 21.2195C24.358 21.2295 24.3588 21.2392 24.3588 21.2492C24.3588 23.7585 21.9968 25.5984 21.7274 25.7998C21.5193 25.9555 21.2724 26.0334 21.0254 26.0334C20.7785 26.0334 20.5315 25.9555 20.3234 25.7998C20.0541 25.5984 17.6921 23.7585 17.6921 21.2492C17.6921 21.2392 17.6928 21.2295 17.6929 21.2195C17.6844 21.2245 17.6763 21.2301 17.6677 21.2351C16.9055 21.6752 16.0693 21.8224 15.2916 21.8224C13.8516 21.8224 12.6117 21.3177 12.411 21.2317C11.9331 21.027 11.6474 20.5318 11.7089 20.0156C11.7488 19.6817 12.1612 16.7163 14.3343 15.4616C14.3428 15.4567 14.3516 15.4526 14.3602 15.4477C14.3516 15.4428 14.3429 15.4384 14.3344 15.4334C12.1612 14.1788 11.7488 11.2133 11.7089 10.8794C11.6474 10.3632 11.9331 9.86805 12.411 9.66328C12.7201 9.53086 15.4944 8.40516 17.6677 9.65992C17.6763 9.66492 17.6843 9.67047 17.6929 9.67547C17.6928 9.66555 17.6921 9.65586 17.6921 9.64586C17.6921 7.13648 20.054 5.29664 20.3234 5.09516C20.7396 4.78375 21.3113 4.78375 21.7275 5.09516C21.9968 5.29664 24.3588 7.13648 24.3588 9.64586C24.3588 9.65578 24.3581 9.66555 24.358 9.67547C24.3666 9.67047 24.3746 9.66492 24.3832 9.65992C26.5565 8.405 29.3306 9.53086 29.6399 9.66328C30.1178 9.86805 30.4035 10.3632 30.342 10.8794C30.302 11.2133 29.8897 14.1788 27.7166 15.4334C27.7166 15.4334 27.7166 15.4334 27.7165 15.4334C27.708 15.4384 27.6993 15.4428 27.6907 15.4477C27.6993 15.4525 27.7081 15.4566 27.7166 15.4616C29.8897 16.7163 30.3021 19.6817 30.342 20.0156C30.4035 20.5318 30.1178 21.027 29.6399 21.2317C29.4392 21.3177 28.1991 21.8224 26.7593 21.8224C25.9814 21.8223 25.1455 21.6752 24.3831 21.2351Z" fill="#3B2463"/>
<path d="M21.0256 17.4575C22.1357 17.4575 23.0356 16.5576 23.0356 15.4475C23.0356 14.3374 22.1357 13.4375 21.0256 13.4375C19.9155 13.4375 19.0156 14.3374 19.0156 15.4475C19.0156 16.5576 19.9155 17.4575 21.0256 17.4575Z" fill="#3B2463"/>
</svg>
