<svg width="41" height="40" viewBox="0 0 41 40" fill="none" xmlns="http://www.w3.org/2000/svg">
<g clip-path="url(#clip0_385_1261)">
<path d="M35.6893 27.83L40.667 22.8526L35.6893 17.8749L36.4913 17.0729C37.8789 15.6853 37.8789 13.4276 36.4916 12.04C35.8193 11.368 34.9254 10.9978 33.9748 10.9978C33.0245 10.9978 32.1307 11.368 31.4587 12.04L30.6567 12.842L25.6789 7.86426L24.2101 9.33337V11.6551C26.8084 12.2743 28.7466 14.6153 28.7466 17.4004C28.7466 20.1857 26.8084 22.5267 24.2101 23.1456V30.345H19.9011L19.042 31.2041L25.6789 37.8407L30.6567 32.863L31.3479 33.5545C32.7355 34.9421 34.9932 34.9421 36.3808 33.5545C37.7685 32.1669 37.7685 29.9092 36.3808 28.5216L35.6893 27.83Z" fill="#3B2463"/>
<path d="M21.8635 27.9989V20.9594H22.841C24.8036 20.9594 26.4 19.3631 26.4 17.4005C26.4 15.4382 24.8036 13.8418 22.841 13.8418H21.8635V6.80236H14.8241V5.66833C14.8241 3.70575 13.2277 2.10938 11.2651 2.10938C9.30284 2.10938 7.70647 3.70575 7.70647 5.66833V6.80236H0.666992V13.8418H1.64477C3.36657 13.8418 4.80639 15.0708 5.13354 16.6977C5.27544 16.896 5.35998 17.1383 5.35998 17.4005C5.35998 17.6626 5.27544 17.9049 5.13354 18.1036C4.80639 19.7302 3.36657 20.9594 1.64477 20.9594H0.666992V27.9989H7.70647V26.8646C7.70647 24.9023 9.30284 23.3059 11.2651 23.3059C13.2277 23.3059 14.8241 24.9023 14.8241 26.8646V27.9989H21.8635Z" fill="#3B2463"/>
</g>
<defs>
<clipPath id="clip0_385_1261">
<rect width="40" height="40" fill="white" transform="translate(0.666992)"/>
</clipPath>
</defs>
</svg>
