<svg width="41" height="40" viewBox="0 0 41 40" fill="none" xmlns="http://www.w3.org/2000/svg">
<g clip-path="url(#clip0_385_1270)">
<path d="M6.35791 9.31592C4.34039 10.0633 2.89844 12.0067 2.89844 14.2808C2.89844 16.7881 4.65137 18.8939 6.99603 19.4374V21.2028C6.99603 21.6667 7.26459 22.0887 7.68481 22.2853C7.84625 22.361 8.01929 22.3979 8.1911 22.3979C8.46606 22.3979 8.73828 22.3033 8.9574 22.1202L12.0064 19.5735H17.1193C19.1878 19.5735 20.9819 18.3799 21.852 16.6462H15.6218C11.1263 16.6459 7.34912 13.513 6.35791 9.31592Z" fill="#3B2463"/>
<path d="M28.5488 0H15.6218C11.6915 0 8.49414 3.19763 8.49414 7.12799C8.49414 11.0583 11.6915 14.2557 15.6218 14.2557H23.2189L27.7828 18.0676C28.0019 18.2507 28.2741 18.3453 28.5491 18.3453C28.7209 18.3453 28.8936 18.3084 29.0554 18.2327C29.4756 18.0362 29.7441 17.6141 29.7441 17.1503V14.1556C33.1075 13.5855 35.6768 10.6512 35.6768 7.12799C35.6768 3.19763 32.4791 0 28.5488 0Z" fill="#3B2463"/>
<path d="M14.5097 34.9123C13.7507 33.6314 12.639 32.6204 11.342 31.9719C12.8318 30.2168 12.75 27.5749 11.0939 25.919C9.35038 24.1753 6.51347 24.1756 4.77 25.919C3.92527 26.7635 3.46018 27.8865 3.46018 29.081C3.46018 30.1521 3.83525 31.1653 4.52159 31.9722C3.22489 32.6204 2.11314 33.6318 1.35417 34.9123C0.732218 35.9612 0.722758 37.2225 1.32853 38.286C1.9401 39.359 3.04118 39.9999 4.27409 39.9999H11.5898C12.8227 39.9999 13.9241 39.359 14.5353 38.286C15.1411 37.2225 15.1316 35.9612 14.5097 34.9123Z" fill="#3B2463"/>
<path d="M39.2615 33.9903C38.2443 32.2743 36.7154 30.949 34.9381 30.1622C35.9561 29.1439 36.5171 27.7901 36.5171 26.35C36.5171 24.9098 35.9561 23.5558 34.9378 22.5371C32.8351 20.4347 29.4144 20.4351 27.312 22.5371C26.2937 23.5558 25.7328 24.9095 25.7328 26.35C25.7328 27.7901 26.2937 29.1442 27.3117 30.1622C25.5344 30.949 24.0055 32.2743 22.9883 33.9903C22.2541 35.2288 22.2431 36.718 22.9587 37.9741C23.6814 39.2427 24.9826 39.9999 26.4395 39.9999H35.8103C37.2672 39.9999 38.5684 39.2427 39.2914 37.9741C40.0067 36.718 39.9958 35.2288 39.2615 33.9903Z" fill="#3B2463"/>
</g>
<defs>
<clipPath id="clip0_385_1270">
<rect width="40" height="40" fill="white" transform="translate(0.333984)"/>
</clipPath>
</defs>
</svg>
