<svg width="40" height="40" viewBox="0 0 40 40" fill="none" xmlns="http://www.w3.org/2000/svg">
<g clip-path="url(#clip0_385_1281)">
<path d="M32.2395 37.8861C32.5825 37.8861 32.9209 38.0166 33.1783 38.2652C34.8239 39.8543 37.2244 40.3834 39.3584 39.7211C37.985 36.86 37.7947 33.5822 38.859 30.5472C40.1798 26.7712 40.5108 22.9865 39.0076 19.1906C37.687 15.8561 35.1386 13.0857 31.9134 11.5059C32.1118 12.5637 32.2118 13.6415 32.2118 14.7307C32.2119 19.354 30.434 23.7023 27.2061 26.9748C23.9778 30.2476 19.6503 32.0879 15.0209 32.1567C14.1608 32.1702 13.3045 32.1196 12.458 32.008C15.0023 36.4677 19.8007 39.3723 25.0736 39.4505C27.3802 39.4862 29.5949 39.0029 31.6575 38.0179C31.8433 37.9291 32.0422 37.8861 32.2395 37.8861Z" fill="#3B2463"/>
<path d="M15.0592 0.00293902C6.84668 -0.16013 0.0198465 6.48363 4.4531e-05 14.6943C-0.00480695 16.7004 0.386777 18.6453 1.164 20.4754C1.17529 20.502 1.18579 20.529 1.19529 20.5563C2.25955 23.5913 2.06935 26.869 0.695886 29.7302C2.83004 30.3921 5.23024 29.8633 6.87599 28.2741C7.28143 27.8824 7.88806 27.7838 8.39678 28.027C10.4591 29.0119 12.6741 29.4967 14.9806 29.4597C23.1289 29.3387 29.5115 22.8689 29.5114 14.7306C29.5115 6.76987 23.0282 0.163137 15.0592 0.00293902ZM6.8849 16.9306C5.705 16.9306 4.74846 15.9756 4.74846 14.7977C4.74846 13.6198 5.705 12.6648 6.8849 12.6648C8.0648 12.6648 9.02133 13.6198 9.02133 14.7977C9.02123 15.9756 8.0648 16.9306 6.8849 16.9306ZM14.7558 16.9306C13.5759 16.9306 12.6194 15.9756 12.6194 14.7977C12.6194 13.6198 13.5759 12.6648 14.7558 12.6648C15.9357 12.6648 16.8922 13.6198 16.8922 14.7977C16.8922 15.9756 15.9357 16.9306 14.7558 16.9306ZM22.6268 16.9306C21.4469 16.9306 20.4903 15.9756 20.4903 14.7977C20.4903 13.6198 21.4469 12.6648 22.6268 12.6648C23.8067 12.6648 24.7632 13.6198 24.7632 14.7977C24.7632 15.9756 23.8067 16.9306 22.6268 16.9306Z" fill="#3B2463"/>
</g>
<defs>
<clipPath id="clip0_385_1281">
<rect width="40" height="40" fill="white"/>
</clipPath>
</defs>
</svg>
