<svg width="21" height="20" viewBox="0 0 21 20" fill="none" xmlns="http://www.w3.org/2000/svg">
<g clip-path="url(#clip0_531_2015)">
<path d="M4.93242 12.0863L4.23625 14.6852L1.69176 14.739C0.931328 13.3286 0.5 11.7149 0.5 10C0.5 8.34179 0.903281 6.77804 1.61813 5.40112H1.61867L3.88398 5.81644L4.87633 8.06815C4.66863 8.67366 4.55543 9.32366 4.55543 10C4.55551 10.7341 4.68848 11.4374 4.93242 12.0863Z" fill="#FBBB00"/>
<path d="M20.3261 8.13184C20.441 8.73676 20.5009 9.36148 20.5009 9.99996C20.5009 10.7159 20.4256 11.4143 20.2822 12.0879C19.7954 14.3802 18.5234 16.3818 16.7613 17.7983L16.7608 17.7978L13.9075 17.6522L13.5037 15.1313C14.6729 14.4456 15.5866 13.3725 16.068 12.0879H10.7207V8.13184H16.146H20.3261Z" fill="#518EF8"/>
<path d="M16.7595 17.7978L16.7601 17.7984C15.0464 19.1758 12.8694 20 10.4996 20C6.69141 20 3.38043 17.8715 1.69141 14.739L4.93207 12.0863C5.77656 14.3401 7.95074 15.9445 10.4996 15.9445C11.5952 15.9445 12.6216 15.6484 13.5024 15.1313L16.7595 17.7978Z" fill="#28B446"/>
<path d="M16.882 2.30219L13.6425 4.95438C12.7309 4.38461 11.6534 4.05547 10.4991 4.05547C7.89246 4.05547 5.67762 5.73348 4.87543 8.06813L1.61773 5.40109H1.61719C3.28148 2.19231 6.63422 0 10.4991 0C12.9254 0 15.1502 0.864297 16.882 2.30219Z" fill="#F14336"/>
</g>
<defs>
<clipPath id="clip0_531_2015">
<rect width="20" height="20" fill="white" transform="translate(0.5)"/>
</clipPath>
</defs>
</svg>
