<svg width="36" height="40" viewBox="0 0 36 40" fill="none" xmlns="http://www.w3.org/2000/svg">
<path d="M2.62433 20.1552C3.44464 17.729 4.07886 15.248 4.50933 12.7812C5.7805 5.49631 12.0761 0.121857 19.4789 0.00209118C23.6227 -0.0654088 27.5467 1.50319 30.5276 4.4174C33.5064 7.32967 35.1615 11.2135 35.1882 15.3535C35.2155 19.6046 33.4867 23.6774 30.4275 26.6114V40H11.4202V34.9104H6.09464L5.24964 26.6086L0.811752 25.5163L2.62433 20.1552ZM21.7218 11.9876L20.8037 14.1442L27.2731 16.8983L30.0272 10.4289L27.8707 9.51084L26.9561 11.6592C25.5909 8.91983 22.7607 7.03319 19.4978 7.03319C16.5341 7.03319 13.7703 8.62834 12.2848 11.1961L14.3135 12.3697C15.3815 10.5237 17.368 9.37686 19.4978 9.37686C22.1311 9.37686 24.371 11.0874 25.1689 13.4552L21.7218 11.9876ZM19.4978 23.689C22.4615 23.689 25.2253 22.0938 26.7108 19.5259L24.6821 18.3524C23.6141 20.1985 21.6276 21.3453 19.4978 21.3453C16.8645 21.3453 14.6246 19.6347 13.8267 17.2669L17.2739 18.7345L18.192 16.578L11.7226 13.8238L8.96847 20.2932L11.125 21.2113L12.0396 19.063C13.4047 21.8023 16.2349 23.689 19.4978 23.689Z" fill="#F36F21"/>
</svg>
