<svg width="40" height="40" viewBox="0 0 40 40" fill="none" xmlns="http://www.w3.org/2000/svg">
<g clip-path="url(#clip0_375_1855)">
<path d="M3.59375 35.1562H9.45312V28.125H5.9375C5.28992 28.125 4.76562 27.6007 4.76562 26.9531C4.76562 26.3055 5.28992 25.7812 5.9375 25.7812H9.45312V23.4375H5.9375C5.28992 23.4375 4.76562 22.9132 4.76562 22.2656C4.76562 21.618 5.28992 21.0938 5.9375 21.0938H9.45312V18.75H5.9375C5.28992 18.75 4.76562 18.2257 4.76562 17.5781C4.76562 16.9305 5.28992 16.4062 5.9375 16.4062H9.45312V14.0625H5.9375C5.28992 14.0625 4.76562 13.5382 4.76562 12.8906C4.76562 12.243 5.28992 11.7188 5.9375 11.7188H9.45312V9.375H5.9375C5.28992 9.375 4.76562 8.85071 4.76562 8.20312C4.76562 7.55554 5.28992 7.03125 5.9375 7.03125H9.45312V5.85938C9.45312 3.9209 11.0303 2.34375 12.9688 2.34375H28.2031V1.17188C28.2031 0.524292 27.6788 0 27.0312 0H3.59375C2.94617 0 2.42188 0.524292 2.42188 1.17188V33.9844C2.42188 34.632 2.94617 35.1562 3.59375 35.1562Z" fill="#F36F21"/>
<path d="M28.2031 12.8906V4.6875H12.9688C12.3212 4.6875 11.7969 5.21179 11.7969 5.85938V38.8281C11.7969 39.4757 12.3212 40 12.9688 40H36.4062C37.0538 40 37.5781 39.4757 37.5781 38.8281V14.0625H29.375C28.7277 14.0625 28.2031 13.5379 28.2031 12.8906ZM31.7188 32.8125H17.6562C17.0087 32.8125 16.4844 32.2882 16.4844 31.6406C16.4844 30.993 17.0087 30.4688 17.6562 30.4688H31.7188C32.3663 30.4688 32.8906 30.993 32.8906 31.6406C32.8906 32.2882 32.3663 32.8125 31.7188 32.8125ZM31.7188 28.125H17.6562C17.0087 28.125 16.4844 27.6007 16.4844 26.9531C16.4844 26.3055 17.0087 25.7812 17.6562 25.7812H31.7188C32.3663 25.7812 32.8906 26.3055 32.8906 26.9531C32.8906 27.6007 32.3663 28.125 31.7188 28.125ZM31.7188 23.4375H17.6562C17.0087 23.4375 16.4844 22.9132 16.4844 22.2656C16.4844 21.618 17.0087 21.0938 17.6562 21.0938H31.7188C32.3663 21.0938 32.8906 21.618 32.8906 22.2656C32.8906 22.9132 32.3663 23.4375 31.7188 23.4375ZM32.8906 17.5781C32.8906 18.2257 32.3663 18.75 31.7188 18.75H17.6562C17.0087 18.75 16.4844 18.2257 16.4844 17.5781C16.4844 16.9305 17.0087 16.4062 17.6562 16.4062H31.7188C32.3663 16.4062 32.8906 16.9305 32.8906 17.5781Z" fill="#F36F21"/>
<path d="M30.5469 11.7188H36.8915L30.5469 5.37415V11.7188Z" fill="#F36F21"/>
</g>
<defs>
<clipPath id="clip0_375_1855">
<rect width="40" height="40" fill="white"/>
</clipPath>
</defs>
</svg>
