<svg width="40" height="40" viewBox="0 0 40 40" fill="none" xmlns="http://www.w3.org/2000/svg">
<g clip-path="url(#clip0_375_1865)">
<path d="M6.69984 2.81169C7.00922 3.45286 7.1557 4.16052 7.1557 4.87239V7.0313C7.1557 7.0313 7.15156 7.03544 7.15156 7.03958V35.4965C7.15156 37.2357 8.57109 38.6552 10.3144 38.6552H10.3352C12.0701 38.6427 13.4813 37.2315 13.4813 35.4965V34.7204C13.4813 34.488 13.6681 34.3054 13.8964 34.3054H32.3213V18.6656C31.2006 19.1139 30.0052 19.6618 29.038 20.2761C28.7558 20.799 28.2827 21.1021 27.7845 21.2474C26.7552 22.2768 25.6262 22.7956 24.4391 22.7956C23.9784 22.7956 23.5633 22.7167 23.2105 22.6047C22.4551 23.991 21.7909 25.4354 21.239 26.9089C21.0646 27.3904 20.5956 27.7183 20.0727 27.7183C19.9356 27.7183 19.7987 27.6934 19.6659 27.6518C19.3255 27.5232 19.0766 27.2908 18.9396 26.9877C18.9064 26.9172 18.8814 26.8466 18.8691 26.776C18.537 26.6889 18.2174 26.5643 17.902 26.4398C17.2669 26.1908 16.6651 25.95 16.1171 26.1285C15.947 26.1825 15.7726 26.2821 15.59 26.3858C15.3493 26.5229 15.1002 26.664 14.8097 26.7386C14.0792 26.9337 13.3487 26.6515 12.7053 26.4024C11.9042 26.0911 11.3937 25.9209 10.9703 26.2571C10.7918 26.3983 10.5304 26.3692 10.3851 26.1907C10.244 26.0081 10.273 25.7465 10.4556 25.6054C11.2692 24.9579 12.1906 25.3149 13.0041 25.6261C13.5811 25.8502 14.129 26.0619 14.598 25.9375C14.7848 25.8876 14.9757 25.7797 15.1791 25.6635C15.3908 25.5431 15.6149 25.4186 15.8639 25.3356C16.6941 25.07 17.4619 25.373 18.2091 25.6677C18.4623 25.7673 18.7071 25.8669 18.9479 25.9375C19.421 24.6798 19.9773 23.4346 20.5998 22.2184C20.3093 22.289 20.0146 22.3305 19.7116 22.3305C19.5622 22.3305 19.4127 22.318 19.2592 22.2973C18.786 22.2309 18.3377 22.0525 17.902 21.8781C17.2669 21.629 16.6651 21.3883 16.1171 21.5668C15.947 21.6208 15.7726 21.7204 15.59 21.8241C15.3493 21.9611 15.1002 22.1022 14.8097 22.1769C14.0792 22.372 13.3487 22.0897 12.7053 21.8407C11.9042 21.5293 11.3937 21.3592 10.9703 21.6954C10.7918 21.8365 10.5304 21.8075 10.3851 21.629C10.244 21.4464 10.273 21.189 10.4556 21.0437C11.2692 20.3962 12.1906 20.7532 13.0041 21.0645C13.5811 21.2886 14.129 21.5003 14.598 21.3758C14.7848 21.326 14.9757 21.2181 15.1791 21.1018C15.3908 20.9815 15.6149 20.857 15.8639 20.774C16.6941 20.5083 17.4619 20.8114 18.2091 21.1061C18.6158 21.2679 18.9977 21.4215 19.3754 21.4755C19.9647 21.5586 20.5541 21.4091 21.1601 21.1767C21.168 21.1529 21.1716 21.1418 21.1796 21.118C20.4498 19.9379 20.3345 18.7252 20.4629 17.686C20.218 17.74 19.9648 17.769 19.7116 17.769C19.5622 17.769 19.4127 17.7565 19.2592 17.7358C18.786 17.6693 18.3377 17.4909 17.902 17.3207C17.2669 17.0675 16.6651 16.8309 16.1171 17.0052C15.947 17.0592 15.7726 17.1588 15.59 17.2625C15.3493 17.3996 15.1002 17.5406 14.8097 17.6195C14.0792 17.8104 13.3487 17.5282 12.7053 17.2792C11.9042 16.9721 11.3937 16.7977 10.9703 17.1339C10.7918 17.275 10.5304 17.246 10.3851 17.0675C10.244 16.889 10.273 16.6275 10.4556 16.4822C11.2692 15.8347 12.1906 16.1917 13.0041 16.5029C13.5811 16.7271 14.129 16.9388 14.598 16.8143C14.7848 16.7645 14.9757 16.6566 15.1791 16.5404C15.3908 16.42 15.6149 16.2954 15.8639 16.2125C16.6941 15.9468 17.4619 16.254 18.2091 16.5487C18.6158 16.7065 18.9977 16.86 19.3754 16.914C19.7946 16.9762 20.2138 16.914 20.6413 16.7894C20.9028 15.8058 21.3179 15.1043 21.4175 14.9383C21.4424 14.8968 21.4715 14.8511 21.5047 14.8096L21.5337 14.7722C22.3141 13.8632 22.9117 12.921 23.3641 12.0576C22.9989 12.178 22.6295 12.3399 22.2518 12.5018C21.4383 12.8462 20.604 13.2074 19.7116 13.2074C19.5622 13.2074 19.4127 13.1949 19.2592 13.1742C18.786 13.1078 18.3377 12.9293 17.902 12.7591C17.2669 12.5059 16.6651 12.2693 16.1171 12.4436C15.947 12.4976 15.7726 12.5972 15.59 12.701C15.3493 12.838 15.1002 12.979 14.8097 13.0579C14.0792 13.2489 13.3487 12.9666 12.7053 12.7176C11.9042 12.4105 11.3937 12.2361 10.9703 12.5723C10.7918 12.7135 10.5304 12.6844 10.3851 12.5059C10.244 12.3274 10.273 12.0659 10.4556 11.9207C11.2691 11.2733 12.1905 11.6303 13.0041 11.9458C13.581 12.1658 14.1289 12.3775 14.598 12.2529C14.7848 12.2072 14.9756 12.0952 15.179 11.979C15.3907 11.8586 15.6148 11.734 15.8638 11.6552C16.694 11.3896 17.4618 11.6926 18.209 11.9873C18.6157 12.1491 18.9976 12.2986 19.3753 12.3525C20.2055 12.4729 21.0439 12.1161 21.9238 11.7383C22.5381 11.4726 23.1773 11.2029 23.8332 11.0866C24.4558 9.68372 24.6592 8.66677 24.6634 8.65021C24.7505 8.22271 25.0327 7.88231 25.4229 7.72458C25.5641 7.66231 25.7259 7.62911 25.892 7.62911C26.141 7.62911 26.3817 7.7038 26.5892 7.84497C26.9959 8.12716 27.3322 8.49661 27.5937 8.95317C28.9716 6.87372 30.6569 5.51224 32.3213 4.61989V4.50778C32.3213 2.7645 30.9059 1.34497 29.1667 1.34497H5.59516C5.88352 1.6031 6.30234 2.0413 6.63867 2.68958C6.65992 2.73044 6.68031 2.77114 6.69984 2.81169ZM10.4555 7.36333C11.2691 6.71583 12.1905 7.06856 13.0041 7.38403C13.581 7.60403 14.1289 7.81575 14.598 7.69536C14.7848 7.6456 14.9756 7.53356 15.179 7.41731C15.3907 7.29692 15.6148 7.17239 15.8638 7.09356C16.694 6.82794 17.4618 7.13099 18.209 7.42567C18.6157 7.58747 18.9976 7.737 19.3753 7.79091C20.2096 7.9113 21.0439 7.55435 21.9238 7.17661C22.7664 6.81552 23.6298 6.44192 24.572 6.46271C25.0244 6.47099 25.4519 6.5706 25.867 6.66606C26.2073 6.74497 26.5311 6.81966 26.8506 6.84458C27.3985 6.88192 28.129 6.69935 28.3781 6.05177C28.4611 5.83591 28.706 5.73216 28.9177 5.81106C29.1294 5.89403 29.2373 6.13481 29.1542 6.34645C28.7433 7.42153 27.6268 7.72864 26.7925 7.67052C26.4065 7.64567 26.0371 7.55841 25.6802 7.47536C25.2859 7.38403 24.9205 7.30106 24.5553 7.29278C23.7874 7.27614 23.0444 7.59989 22.2516 7.94028C21.4381 8.28895 20.6038 8.64591 19.7114 8.64591C19.562 8.64591 19.4126 8.63763 19.2591 8.6127C18.7859 8.5463 18.3376 8.36786 17.9018 8.19763C17.2667 7.94442 16.6649 7.70786 16.117 7.88216C15.9468 7.93614 15.7724 8.03575 15.5898 8.1395C15.3491 8.27653 15.1001 8.41755 14.8095 8.49646C14.0791 8.68739 13.3485 8.40513 12.7052 8.15614C11.9041 7.84903 11.3935 7.6788 10.9702 8.01083C10.7916 8.15614 10.5302 8.12294 10.3849 7.94442C10.2438 7.76591 10.2729 7.50442 10.4555 7.36333ZM39.4791 35.1336V35.4945C39.4791 37.2372 38.0596 38.6551 36.3147 38.6551H32.7434C32.7416 38.6551 32.7402 38.6541 32.7384 38.6541H12.7539C13.7005 37.9236 14.3113 36.779 14.3113 35.4945V35.1336H32.7353C32.7364 35.1336 32.7373 35.1342 32.7384 35.1342C32.7395 35.1342 32.7403 35.1336 32.7414 35.1336H39.4791ZM5.39828 2.27435C5.96953 2.84692 6.32328 3.63708 6.32328 4.50856V6.61474H0V4.50856C0 2.76567 1.41953 1.34778 3.16445 1.34778C4.03586 1.34778 4.82594 1.70216 5.39828 2.27435ZM38.456 11.0242C37.6673 14.1829 34.1227 15.1333 32.1387 15.4198C33.2926 15.8016 34.8615 15.8473 35.5339 15.8224C35.7498 15.8141 35.9282 15.9635 35.9614 16.1711C35.9946 16.3786 35.8659 16.5779 35.6626 16.6359C35.6002 16.6525 29.4863 18.3708 27.2077 20.6537C26.2032 21.6541 25.2444 21.9654 24.4392 21.9654C23.7917 21.9654 23.2437 21.7661 22.8495 21.5544C21.9654 23.0901 21.1519 24.7794 20.4628 26.6183C20.4006 26.7884 20.2428 26.888 20.0727 26.888C20.027 26.888 19.9772 26.8797 19.9273 26.8632C19.7156 26.7843 19.6036 26.5436 19.6866 26.3278C20.4006 24.4184 21.2473 22.671 22.1646 21.0813C22.1563 21.0772 22.1521 21.0688 22.148 21.0647C20.1764 18.4747 22.0484 15.4862 22.1313 15.3617C22.1396 15.3451 22.1521 15.3286 22.1645 15.3119C24.7919 12.2486 25.4767 8.83271 25.4809 8.7995C25.51 8.65841 25.6012 8.5463 25.7341 8.49239C25.8627 8.43841 26.008 8.45505 26.1242 8.53388C26.9129 9.08177 27.2532 10.0655 27.3902 10.9662C31.2877 3.12974 39.369 3.79388 39.4562 3.80216C39.6305 3.81872 39.7799 3.94739 39.8214 4.11763C40.8009 8.12302 37.5137 10.1236 35.6749 10.9122C36.9367 11.1322 37.8167 10.5802 37.8291 10.5719C37.9702 10.4806 38.157 10.4847 38.294 10.5844C38.4352 10.6839 38.4974 10.8583 38.456 11.0242Z" fill="#F36F21"/>
</g>
<defs>
<clipPath id="clip0_375_1865">
<rect width="40" height="40" fill="white"/>
</clipPath>
</defs>
</svg>
