<svg width="40" height="40" viewBox="0 0 40 40" fill="none" xmlns="http://www.w3.org/2000/svg">
<path d="M24.5254 8.5813H24.5304V8.59317H24.5254V8.5813Z" fill="#F36F21"/>
<path d="M29.3086 7.5144H32.5108V10.7166H29.3086V7.5144Z" fill="#F36F21"/>
<path d="M33.959 10.6384H37.1612V13.8406H33.959V10.6384Z" fill="#F36F21"/>
<path d="M31.4854 28.0084H34.6875V31.2106H31.4854V28.0084Z" fill="#F36F21"/>
<path d="M29.2197 21.7844H32.4219V24.9866H29.2197V21.7844Z" fill="#F36F21"/>
<path d="M26.1465 26.0032H29.3487V29.2054H26.1465V26.0032Z" fill="#F36F21"/>
<path d="M25.3008 5.20874H28.503V8.41093H25.3008V5.20874Z" fill="#F36F21"/>
<path d="M29.5059 14.4537H32.708V17.6559H29.5059V14.4537Z" fill="#F36F21"/>
<path d="M25.6719 17.5225H28.8741V20.7246H25.6719V17.5225Z" fill="#F36F21"/>
<path d="M25.4592 24.6097V21.4056L22.2539 21.4081V24.6097H25.4592Z" fill="#F36F21"/>
<path d="M29.3251 36.8182C28.754 34.9224 28.3517 32.9798 28.1229 31.0132H24.5188V27.8126H21.3173V24.6104H18.1151V21.4082H21.3173V18.1772H24.5223V14.9897H27.7232V11.7869L24.5257 11.7835V8.59381L21.3151 8.59193V5.38912L24.521 5.38131V3.11162C22.9903 2.61637 21.3999 2.32942 19.7926 2.25849C11.9398 1.85224 5.21446 6.89599 5.43103 13.8522C5.45946 14.7704 5.62009 16.1226 5.61634 17.006C5.60915 20.1441 2.89384 21.4332 2.84165 22.4319C2.75571 24.0719 4.68228 23.5597 5.36165 25.8797C6.22415 28.8251 4.98665 32.1838 9.00165 31.9763C10.6032 31.9119 13.206 31.2904 14.3213 32.3276C15.0326 32.9888 15.6054 35.8751 15.8288 37.1522C15.859 37.3239 15.9488 37.4794 16.0824 37.5914C16.216 37.7033 16.3849 37.7645 16.5592 37.7641H28.612C28.7269 37.7644 28.8403 37.738 28.9433 37.6868C29.0462 37.6357 29.1359 37.5612 29.2051 37.4695C29.2743 37.3777 29.3211 37.271 29.342 37.158C29.3628 37.0449 29.357 36.9286 29.3251 36.8182ZM15.122 11.7969H11.9198V8.59381H15.122V11.7969ZM18.322 9.81818H21.5242V13.0204H18.322V9.81818ZM15.926 17.3438V14.1413H19.1282V17.3438H15.926ZM19.962 31.771H16.7598V28.5682H19.962V31.771Z" fill="#F36F21"/>
</svg>
