<svg width="40" height="40" viewBox="0 0 40 40" fill="none" xmlns="http://www.w3.org/2000/svg">
<g clip-path="url(#clip0_375_1781)">
<path d="M16.0866 11.3261C16.1806 12.6795 17.727 13.4206 18.8447 12.6517C19.8279 11.9749 21.1701 12.6799 21.1701 13.8745V18.7893H24.852C24.1981 16.1192 26.3152 13.5178 29.1314 13.7123C31.6092 13.884 33.4467 16.2699 32.828 18.7893H36.5471C39.6591 14.0841 36.525 7.27657 30.4606 6.96517C31.1463 3.34399 28.3542 0.00610352 24.6951 0.00610352C23.3733 0.00610352 22.1522 0.445478 21.1701 1.18563V8.52102C21.1701 9.71478 19.8289 10.4209 18.8445 9.74376C17.6485 8.92095 15.983 9.82985 16.0866 11.3261Z" fill="#F36F21"/>
<path d="M8.47888 18.7894C9.67286 18.7894 10.3789 20.1308 9.70146 21.1151C8.88247 22.3051 9.78169 23.9758 11.2843 23.872C12.6408 23.778 13.3783 22.2304 12.6103 21.1148C11.9332 20.131 12.6388 18.7894 13.8331 18.7894H18.8269V15.1843C16.3018 15.8046 13.9206 13.9601 13.7491 11.4881C13.5547 8.68382 16.1451 6.55265 18.8269 7.20929V1.18569C14.6227 -1.98274 8.5999 1.63507 9.52247 6.88765C3.42193 7.21179 0.334662 14.0341 3.47365 18.7894H8.47888Z" fill="#F36F21"/>
<path d="M36.5077 21.1324H31.5179C30.3234 21.1324 29.618 19.7906 30.2952 18.8069C31.0637 17.6908 30.3243 16.1437 28.9691 16.0497C27.4668 15.9454 26.567 17.6161 27.3863 18.8067C28.0635 19.7909 27.358 21.1324 26.1637 21.1324H21.1699V24.7354C23.8441 24.0806 26.4427 26.2031 26.2477 29.0142C26.0762 31.4871 23.6943 33.3301 21.1699 32.7104V38.8143C25.3741 41.9827 31.397 38.3649 30.4744 33.1124C36.4283 32.7959 39.7377 26.1163 36.5077 21.1324Z" fill="#F36F21"/>
<path d="M23.9106 28.8521C24.0143 27.3566 22.3488 26.4468 21.1528 27.2699C20.169 27.9464 18.8272 27.242 18.8272 26.0472V21.1324H15.1432C15.7809 23.7278 13.8041 26.2198 11.1511 26.2198C8.47305 26.2198 6.53907 23.6963 7.16727 21.1324H3.4743C0.337034 25.8872 3.41828 32.7206 9.53672 33.0349C8.85102 36.656 11.6431 39.9939 15.3023 39.9939C16.6241 39.9939 17.8452 39.5546 18.8273 38.8144V31.4007C18.8273 30.2071 20.1685 29.5007 21.1526 30.1779C22.268 30.9457 23.8166 30.2083 23.9106 28.8521Z" fill="#F36F21"/>
</g>
<defs>
<clipPath id="clip0_375_1781">
<rect width="40" height="40" fill="white"/>
</clipPath>
</defs>
</svg>
