<svg width="44" height="44" viewBox="0 0 44 44" fill="none" xmlns="http://www.w3.org/2000/svg">
<path d="M22.2354 25.1553C22.1705 25.9188 22.6887 29.9597 22.9562 31.5442C23.0835 32.2949 23.4326 33.5179 23.307 34.1673C23.1276 35.0723 23.0758 36.2435 23.1745 36.9255C23.2368 37.3396 23.4328 39.2497 23.1524 39.9484C23.0056 40.3147 22.7367 42.1922 22.7367 42.1922C22.0362 43.961 22.4316 43.874 22.4316 43.874C22.6484 44.1401 23.0199 43.8949 23.0199 43.8949C23.3029 44.0753 23.4989 43.852 23.4989 43.852C23.7418 44.0531 24.025 43.8273 24.025 43.8273C24.3302 43.9857 24.6132 43.6936 24.6132 43.6936C24.7885 43.7818 24.8313 43.6703 24.8313 43.6703C25.3572 43.6366 24.5379 41.9536 24.5379 41.9536C24.3417 40.4421 24.7326 39.6008 24.7326 39.6008C26.013 35.8038 26.078 34.7961 25.5662 33.3652C25.422 32.9521 25.3856 32.7886 25.4519 32.6092C25.6052 32.1953 25.4935 30.5304 25.6805 29.8693C26.0413 28.5943 26.3973 25.3607 26.5828 23.8519C26.8321 21.8196 25.6997 19.0946 25.6997 19.0946C25.4517 17.9857 25.8153 14.0347 25.8153 14.0347C26.323 14.8248 26.3036 16.2195 26.3036 16.2195C26.223 17.6822 27.4853 19.9178 27.4853 19.9178C28.0918 20.8416 28.3214 21.7181 28.3214 21.7831C28.3214 22.0493 28.2632 22.6935 28.2632 22.6935L28.2865 23.2546C28.2969 23.3975 28.3773 23.8894 28.3643 24.1272C28.2696 25.5906 28.5021 25.3153 28.5021 25.3153C28.6983 25.3153 28.9139 24.1377 28.9139 24.1377C28.9139 24.4413 28.8397 25.3504 29.0034 25.6934C29.1994 26.1024 29.3436 25.6232 29.3461 25.527C29.398 23.6638 29.5099 24.152 29.5099 24.152C29.6189 25.6635 29.7528 26.0049 29.9929 25.8868C30.1748 25.8 30.0085 24.0728 30.0085 24.0728C30.3201 25.0988 30.5564 25.2622 30.5564 25.2622C31.0705 25.6232 30.7526 24.626 30.6811 24.4285C30.3007 23.3793 30.2889 23.0157 30.2889 23.0157C30.7643 23.9585 31.1225 23.9236 31.1225 23.9236C31.5862 23.7756 30.7174 22.4406 30.2083 21.801C29.9486 21.4752 29.6136 21.0389 29.5163 20.7798C29.3579 20.3409 29.2382 18.93 29.2382 18.93C29.1902 17.2651 28.7787 16.542 28.7787 16.542C28.0749 15.4155 27.9425 13.3143 27.9425 13.3143L27.9114 9.76685C27.6646 7.34705 25.8816 7.32957 25.8816 7.32957C24.0794 7.06129 23.8286 6.47911 23.8286 6.47911C23.4469 5.92976 23.665 4.87671 23.665 4.87671C23.9817 4.6191 24.1039 3.93519 24.1039 3.93519C24.6298 3.53192 24.604 2.94185 24.3611 2.94825C24.1662 2.95337 24.2103 2.79193 24.2103 2.79193C24.5392 0.13563 22.181 0 22.181 0H21.821C21.821 0 19.4618 0.13563 19.7902 2.79129C19.7902 2.79129 19.8343 2.95294 19.6377 2.94761C19.3955 2.94121 19.3729 3.53129 19.8968 3.93455C19.8968 3.93455 20.0188 4.61824 20.3357 4.87607C20.3357 4.87607 20.5539 5.92912 20.1721 6.47847C20.1721 6.47847 19.9222 7.06065 18.1191 7.32893C18.1191 7.32893 16.3331 7.34641 16.0902 9.76621L16.0565 13.3137C16.0565 13.3137 15.9267 15.4149 15.2201 16.5413C15.2201 16.5413 14.8105 17.2647 14.7631 18.9293C14.7631 18.9293 14.6431 20.3402 14.4853 20.7791C14.3891 21.0369 14.0543 21.4733 13.7924 21.8004C13.2789 22.4387 12.4158 23.7709 12.8775 23.9229C12.8775 23.9229 13.2377 23.9579 13.7112 23.0151C13.7112 23.0151 13.7013 23.3761 13.3215 24.4279C13.2469 24.6228 12.9294 25.62 13.4437 25.2615C13.4437 25.2615 13.6819 25.0979 13.9916 24.0722C13.9916 24.0722 13.8255 25.7993 14.0103 25.8861C14.252 26.0045 14.3838 25.6629 14.4927 24.1513C14.4927 24.1513 14.6045 23.6632 14.6563 25.5264C14.6589 25.6226 14.7998 26.1017 14.9967 25.6927C15.1628 25.3498 15.0881 24.4422 15.0881 24.137C15.0881 24.137 15.3012 25.3146 15.5004 25.3146C15.5004 25.3146 15.7347 25.5899 15.6385 24.1266C15.623 23.8875 15.7068 23.3968 15.7172 23.2539L15.7398 22.6929C15.7398 22.6929 15.6814 22.0501 15.6814 21.7825C15.6814 21.7162 15.9113 20.841 16.5176 19.9171C16.5176 19.9171 17.7786 17.6805 17.6973 16.2189C17.6973 16.2189 17.6798 14.8242 18.1876 14.0341C18.1876 14.0341 18.548 17.9848 18.3038 19.094C18.3038 19.094 17.1695 21.8189 17.4197 23.8513C17.6039 25.3641 17.9592 28.5934 18.3209 29.8687C18.5098 30.5285 18.3981 32.1929 18.5495 32.6086C18.6177 32.7892 18.5819 32.9555 18.4352 33.3646C17.9261 34.7955 17.991 35.8033 19.2713 39.6001C19.2713 39.6001 19.6654 40.4414 19.4663 41.953C19.4663 41.953 18.6482 43.636 19.1722 43.6697C19.1722 43.6697 19.2131 43.7812 19.3903 43.6929C19.3903 43.6929 19.6733 43.9851 19.9791 43.8266C19.9791 43.8266 20.2623 44.0527 20.5044 43.8514C20.5044 43.8514 20.6984 44.0746 20.9814 43.8942C20.9814 43.8942 21.3529 44.1448 21.5736 43.8733C21.5736 43.8733 21.9658 43.9603 21.2676 42.1916C21.2676 42.1916 21.0002 40.3165 20.8528 39.9477C20.5718 39.2493 20.7703 37.3351 20.8302 36.9248C20.9268 36.239 20.875 35.0706 20.6984 34.1666C20.5692 33.5187 20.9192 32.2955 21.0484 31.5436C21.3139 29.9606 21.8342 25.9194 21.7692 25.1547L21.9842 25.2302C22.1381 25.2306 22.2354 25.1553 22.2354 25.1553Z" fill="#F36F21"/>
</svg>
