<svg width="40" height="40" viewBox="0 0 40 40" fill="none" xmlns="http://www.w3.org/2000/svg">
<g clip-path="url(#clip0_375_1803)">
<path d="M25.1931 5.66813L24.6878 3.15796H23.0316L22.5264 5.66813C22.4739 5.92889 22.2786 6.13757 22.0218 6.20708C21.442 6.36339 20.885 6.59457 20.365 6.8948C20.1332 7.02923 19.8452 7.01997 19.6225 6.87094L17.4969 5.44638L16.3271 6.62252L17.7474 8.74603C17.8965 8.96867 17.9057 9.25674 17.7713 9.48849C17.4711 10.0086 17.2399 10.5655 17.0836 11.1453C17.0141 11.4021 16.8054 11.5974 16.5446 11.6499L14.0352 12.1545V13.8106L16.5453 14.3152C16.8061 14.3676 17.0148 14.563 17.0843 14.8197C17.2406 15.3995 17.4718 15.9565 17.772 16.4766C17.9064 16.7083 17.8972 16.9964 17.7481 17.219L16.3236 19.3446L17.4997 20.5145L19.6232 19.0941C19.8459 18.9451 20.1339 18.9358 20.3657 19.0702C20.8857 19.3705 21.4427 19.6017 22.0225 19.758C22.2793 19.8275 22.4746 20.0362 22.5271 20.2969L23.0316 22.8071H24.6878L25.1923 20.2969C25.2448 20.0362 25.4402 19.8275 25.6969 19.758C26.2767 19.6017 26.8337 19.3705 27.3538 19.0702C27.5855 18.9358 27.8736 18.9451 28.0962 19.0941L30.2218 20.5187L31.3916 19.3425L29.9713 17.219C29.8223 16.9964 29.813 16.7083 29.9474 16.4766C30.2477 15.9565 30.4789 15.3995 30.6352 14.8197C30.7047 14.563 30.9134 14.3676 31.1741 14.3152L33.6843 13.8106V12.1537L31.1741 11.6492C30.9134 11.5967 30.7047 11.4014 30.6352 11.1446C30.4789 10.5648 30.2477 10.0079 29.9474 9.48778C29.813 9.25603 29.8223 8.96797 29.9713 8.74533L31.3959 6.61971L30.2197 5.45059L28.0962 6.87094C27.8736 7.01997 27.5855 7.02923 27.3538 6.8948C26.8337 6.59457 26.2767 6.36339 25.6969 6.20708C25.4405 6.13734 25.2454 5.9287 25.1931 5.66813ZM28.772 12.9825C28.772 15.6955 26.5727 17.8948 23.8597 17.8948C21.1467 17.8948 18.9474 15.6955 18.9474 12.9825C18.9474 10.2695 21.1467 8.07024 23.8597 8.07024C26.5714 8.07333 28.7689 10.2708 28.772 12.9825Z" fill="#F36F21"/>
<path d="M31.374 9.17477C31.5677 9.55555 31.732 9.95063 31.8653 10.3565L32.9305 10.5671C34.0264 10.0191 34.6371 8.82075 34.4363 7.61206C34.2356 6.40338 33.2703 5.46676 32.0561 5.30249L32.3838 5.63021C32.8551 6.10008 32.9316 6.8363 32.567 7.39302L31.374 9.17477Z" fill="#F36F21"/>
<path d="M20.3516 12.9825C20.3516 14.9204 21.9225 16.4913 23.8603 16.4913C25.7982 16.4913 27.3691 14.9204 27.3691 12.9825C27.3691 11.0447 25.7982 9.47375 23.8603 9.47375C21.9235 9.47607 20.3539 11.0456 20.3516 12.9825ZM24.5621 12.9825C24.5621 13.3701 24.2479 13.6843 23.8603 13.6843C23.4728 13.6843 23.1586 13.3701 23.1586 12.9825C23.1586 12.595 23.4728 12.2808 23.8603 12.2808C24.2479 12.2808 24.5621 12.595 24.5621 12.9825Z" fill="#F36F21"/>
<path d="M0.446566 24.0246C0.629735 24.1523 0.823141 24.2648 1.02481 24.3607C1.62341 24.6667 2.44306 25.0863 2.61218 25.9418C2.71266 26.4721 2.64723 27.0205 2.42481 27.5123C2.30271 27.7726 2.17639 27.9972 2.06622 28.1909C2.03253 28.2512 1.99604 28.3186 1.96025 28.3797C2.25148 28.6141 2.64867 28.9116 2.81709 29.0351C2.97028 29.1479 3.07113 29.318 3.09653 29.5065C3.12193 29.6951 3.06971 29.8858 2.95183 30.0351C2.8475 30.1707 2.75677 30.3162 2.68095 30.4695C2.73078 30.499 2.7813 30.5277 2.83183 30.5565C3.45006 30.8233 3.92197 31.3454 4.12516 31.9874C4.22924 32.4885 4.20632 33.0076 4.0585 33.4976C4.02551 33.6414 3.99253 33.7853 3.97218 33.9291C3.93459 34.3514 3.99387 34.7767 4.14551 35.1726C4.30117 35.8197 4.93727 36.2307 5.59113 36.1067C7.63618 35.6148 9.65121 35.0056 11.6262 34.2821H11.6304C12.361 34.0337 13.0234 33.8021 13.5448 33.6204C14.0311 33.4498 14.3981 33.3221 14.589 33.2611C17.5062 32.3312 18.0978 31.2807 18.081 30.5628C18.0719 30.1755 18.3785 29.8541 18.7659 29.8449C18.9526 29.8379 19.1343 29.9067 19.2695 30.0357C19.4047 30.1647 19.482 30.343 19.4838 30.5298C19.5252 32.2716 18.022 33.64 15.0171 34.6C14.8332 34.659 14.4781 34.7825 14.008 34.9509L13.3764 35.1712C14.5332 36.4535 15.3774 37.9861 15.8431 39.6491L31.7603 39.6049L31.7132 39.5348C31.5113 39.2434 31.3296 38.9386 31.1694 38.6225C30.8204 37.9133 30.5291 37.1771 30.2985 36.4211C29.8727 34.9846 29.5773 33.5127 29.4157 32.0232C29.139 29.6755 29.4941 27.2965 30.4445 25.1319C31.0047 23.9606 31.6977 22.8575 32.5097 21.8442C32.9167 21.2955 33.3378 20.7284 33.7027 20.1523C34.6747 18.6512 35.197 16.9034 35.208 15.1151C35.2122 14.9565 35.208 14.7986 35.2045 14.6407L34.9287 14.4562C34.7346 14.8352 34.3784 15.1052 33.961 15.1895L31.8641 15.6105C31.7308 16.0164 31.5666 16.4115 31.3729 16.7923L32.5617 18.5635C32.9347 19.1242 32.8569 19.8707 32.3764 20.3425L31.2122 21.5067C30.7423 21.9779 30.0061 22.0544 29.4494 21.6898L27.6676 20.4969C27.2868 20.6906 26.8918 20.8548 26.4859 20.9881L26.0648 23.0877C25.9313 23.7418 25.3555 24.2113 24.688 24.2105H23.0318C22.3627 24.2109 21.7865 23.7389 21.655 23.0828L21.2339 20.986C20.828 20.8527 20.433 20.6885 20.0522 20.4948L18.2788 21.6842C17.7181 22.0553 16.9732 21.978 16.5006 21.4997L15.3357 20.3348C14.8644 19.8649 14.7879 19.1287 15.1525 18.5719L16.3455 16.7902C16.1518 16.4094 15.9876 16.0143 15.8543 15.6084L13.7546 15.1874C13.1006 15.0539 12.631 14.4781 12.6318 13.8105V12.1544C12.6315 11.4853 13.1035 10.909 13.7595 10.7776L15.8564 10.3565C15.9897 9.95061 16.1539 9.55553 16.3476 9.17475L15.1581 7.40142C14.7851 6.84078 14.8629 6.09423 15.3434 5.62247L16.5076 4.45826C16.9775 3.98701 17.7137 3.91052 18.2704 4.2751L20.0522 5.46809C20.433 5.27437 20.828 5.11015 21.2339 4.97686L21.655 2.87721C21.7885 2.22312 22.3643 1.7536 23.0318 1.7544H24.688C24.7809 1.75527 24.8735 1.76514 24.9645 1.78388L25.5399 1.20844C23.6904 0.540944 21.7246 0.255889 19.7617 0.370542C17.5473 0.526252 15.3473 0.843351 13.1792 1.31931C10.3469 1.88072 8.23113 2.88773 6.88867 4.30668C5.78072 5.49448 4.92427 6.89396 4.37078 8.42107C4.11096 9.18061 3.90001 9.95599 3.7392 10.7425C3.56842 11.3982 3.33336 12.0354 3.03744 12.6449C2.90551 12.9404 2.77288 13.2351 2.6585 13.5355C2.59004 13.6928 2.55148 13.8615 2.54481 14.033C2.57499 14.2435 2.84376 14.4877 3.12867 14.7481C3.70953 15.1563 4.08484 15.7963 4.15744 16.5025C4.14455 16.8359 4.05165 17.1613 3.88657 17.4512C3.00834 19.3007 1.9321 21.0494 0.676741 22.6667C0.142706 23.3172 0.0311273 23.5748 0.0283203 23.6814C0.157077 23.8082 0.297066 23.9231 0.446566 24.0246ZM5.24306 10.3509C5.35334 9.86335 5.49158 9.38256 5.65709 8.91089C6.14491 7.56018 6.90116 6.32221 7.88025 5.27159C9.0199 4.07019 10.8887 3.20002 13.4353 2.69335C13.8155 2.61797 14.1849 2.86507 14.2602 3.24528C14.3356 3.62548 14.0885 3.99481 13.7083 4.07019C11.4529 4.51861 9.83534 5.24773 8.8999 6.23581C8.05186 7.14798 7.39689 8.2221 6.97429 9.3937C6.82731 9.81559 6.70454 10.2455 6.60657 10.6814C6.54803 10.9259 6.36315 11.1205 6.12191 11.1914C5.88067 11.2622 5.61994 11.1986 5.43844 11.0246C5.25694 10.8506 5.18241 10.5928 5.24306 10.3488V10.3509ZM4.91253 12.9825C5.3001 12.9825 5.61429 13.2967 5.61429 13.6842C5.61429 14.0718 5.3001 14.386 4.91253 14.386C4.52496 14.386 4.21078 14.0718 4.21078 13.6842C4.21078 13.2967 4.52496 12.9825 4.91253 12.9825Z" fill="#F36F21"/>
<path d="M26.4862 4.98253C26.8921 5.11582 27.2872 5.28004 27.668 5.47376L29.4413 4.28078C29.7315 4.09153 30.0809 4.01468 30.4237 4.06464C30.8262 3.93168 31.2469 3.86254 31.6708 3.85972C33.3872 3.85395 34.9345 4.89302 35.5786 6.48402C36.2227 8.07502 35.8341 9.89785 34.5971 11.0878C34.9084 11.3548 35.0878 11.7443 35.0883 12.1545V12.8717L36.6483 13.918L37.4273 13.139L36.3515 11.5348C36.2006 11.3098 36.1927 11.0182 36.3311 10.7853C36.5675 10.3836 36.7481 9.95159 36.868 9.50113C36.9375 9.24373 37.1468 9.04797 37.4083 8.99586L39.303 8.61902V7.52148L37.4118 7.14464C37.1503 7.09254 36.941 6.89677 36.8715 6.63937C36.7516 6.18892 36.571 5.75687 36.3346 5.35516C36.1951 5.12302 36.2017 4.83133 36.3515 4.60569L37.428 3.00148L36.649 2.22253L35.0441 3.29832C34.8191 3.44917 34.5274 3.4571 34.2946 3.31867C33.8929 3.08225 33.4609 2.90164 33.0104 2.78183C32.753 2.71232 32.5572 2.50295 32.5051 2.24148L32.1283 0.350952H31.0308L30.6539 2.24569C30.6018 2.50716 30.406 2.71653 30.1487 2.78604C29.6982 2.90585 29.2662 3.08646 28.8644 3.32288C28.6308 3.46005 28.3391 3.45049 28.115 3.29832L26.5108 2.22253L26.0195 2.71376C26.0394 2.76782 26.0555 2.82315 26.068 2.87937L26.4862 4.98253Z" fill="#F36F21"/>
</g>
<defs>
<clipPath id="clip0_375_1803">
<rect width="40" height="40" fill="white"/>
</clipPath>
</defs>
</svg>
