<svg width="40" height="40" viewBox="0 0 40 40" fill="none" xmlns="http://www.w3.org/2000/svg">
<path d="M21.8483 6.74712C22.1774 6.74712 22.4639 6.50363 22.5082 6.16834L22.7839 4.08761C22.8324 3.72238 22.5755 3.38709 22.2106 3.33892C21.848 3.29334 21.5108 3.5466 21.4623 3.91183L21.1865 5.99256C21.138 6.3578 21.3949 6.69308 21.7598 6.74126C21.7894 6.74517 21.819 6.74712 21.8483 6.74712Z" fill="#F36F21"/>
<path d="M17.6854 6.87278C17.7701 6.87278 17.8563 6.8565 17.9397 6.822C18.2798 6.68137 18.442 6.29205 18.3013 5.95156L17.4999 4.0121C17.3593 3.67161 16.9706 3.5095 16.6291 3.65078C16.289 3.7914 16.1268 4.18072 16.2675 4.52122L17.0689 6.46067C17.175 6.71783 17.4234 6.87278 17.6854 6.87278Z" fill="#F36F21"/>
<path d="M19.9998 18.953C22.7865 18.953 25.0465 16.6997 25.0465 13.913C25.0465 11.1263 22.7865 8.86633 19.9998 8.86633C17.2131 8.86633 14.9531 11.1263 14.9531 13.913C14.9531 16.6997 17.2131 18.953 19.9998 18.953Z" fill="#F36F21"/>
<path d="M25.5137 8.71968C25.7137 8.71968 25.9137 8.63301 26.047 8.45967L27.327 6.79301C27.547 6.50635 27.4937 6.08634 27.2004 5.8597C26.907 5.63301 26.4937 5.69303 26.267 5.97969L24.987 7.64636C24.7603 7.9397 24.8204 8.3597 25.107 8.57967C25.2337 8.67301 25.3737 8.71968 25.5137 8.71968Z" fill="#F36F21"/>
<path d="M29.0401 11.2929C28.6734 10.7663 28.1134 10.4196 27.4801 10.313C26.8467 10.213 26.2067 10.3663 25.6867 10.753C25.6534 10.7796 25.6201 10.8063 25.5934 10.8329C26.0934 11.7463 26.3801 12.7996 26.3801 13.9129C26.3801 14.453 26.3134 14.9796 26.1867 15.4796L29.8534 20.7596L26.0401 20.9663H14.0001L10.1467 20.7596L13.8134 15.4796C13.6867 14.9796 13.6201 14.453 13.6201 13.9129C13.6201 12.7996 13.9067 11.753 14.4134 10.8396C14.3801 10.8063 14.3467 10.7796 14.3134 10.753C13.7934 10.3663 13.1601 10.213 12.5201 10.313C11.8867 10.4196 11.3334 10.7663 10.9601 11.2929L5.48674 19.1197C4.99341 19.8263 4.7334 20.6529 4.7334 21.5063C4.7334 23.6129 6.3134 25.393 8.40007 25.6463L13.2934 26.233V35.9996C13.2934 36.3663 13.5934 36.6663 13.9601 36.6663H26.0401C26.4067 36.6663 26.7067 36.3663 26.7067 35.9996V26.233L31.6001 25.6463C33.6867 25.393 35.2667 23.6129 35.2667 21.5063C35.2667 20.6529 35.0068 19.8263 34.5134 19.1197L29.0401 11.2929Z" fill="#F36F21"/>
<path d="M11.9529 6.71301C11.7262 6.99967 11.7796 7.41968 12.0729 7.64636L13.7396 8.92635C13.8596 9.01969 13.9996 9.06636 14.1395 9.06636C14.3396 9.06636 14.5396 8.97302 14.6729 8.80635C14.8929 8.51302 14.8396 8.09302 14.5462 7.86637L12.8862 6.58634C12.5929 6.36637 12.1729 6.41968 11.9529 6.71301Z" fill="#F36F21"/>
</svg>
