<svg width="15" height="16" viewBox="0 0 15 16" fill="none" xmlns="http://www.w3.org/2000/svg">
<path d="M3.46758 7.2H5.06758V8.8H3.46758V7.2ZM14.6676 3.2V14.4C14.6676 15.28 13.9476 16 13.0676 16H1.86758C1.44323 16 1.03627 15.8314 0.736207 15.5314C0.436149 15.2313 0.267578 14.8243 0.267578 14.4L0.275578 3.2C0.275578 2.32 0.979578 1.6 1.86758 1.6H2.66758V0H4.26758V1.6H10.6676V0H12.2676V1.6H13.0676C13.9476 1.6 14.6676 2.32 14.6676 3.2ZM1.86758 4.8H13.0676V3.2H1.86758V4.8ZM13.0676 14.4V6.4H1.86758V14.4H13.0676ZM9.86758 8.8H11.4676V7.2H9.86758V8.8ZM6.66758 8.8H8.26758V7.2H6.66758V8.8Z" fill="#3B2463"/>
</svg>
