<svg width="44" height="56" viewBox="0 0 44 56" fill="none" xmlns="http://www.w3.org/2000/svg">
<rect x="2" y="1" width="40" height="40" rx="8" fill="black"/>
<path d="M8 7V29C8 32.3137 10.6863 35 14 35H22M8 7L36 35M8 7H22M36 35V13C36 9.68629 33.3137 7 30 7H22M36 35H22M22 7V35" stroke="white"/>
<path d="M8 35L22 21H25M25 21L22 35M25 21H29.3684M36 7L29.3684 21M29.3684 21L27 26" stroke="white"/>
<path d="M0.156738 55.3048V46.9426H2.35026V55.3048H0.156738Z" fill="white"/>
<path d="M6.26188 53.1513V49.3908C6.26188 48.598 5.53251 48.2551 4.90038 48.2551C4.26826 48.2551 3.88467 48.2926 3.33899 48.4105V46.9534C4.11699 46.8248 4.42494 46.7766 5.54331 46.7766C7.0831 46.7766 8.48781 47.4998 8.48781 49.0479V53.1513H6.25647H6.26188Z" fill="white"/>
<path d="M18.1695 50.5264C17.921 51.9942 16.5325 53.3281 13.9932 53.3281C11.9401 53.3281 10.2977 52.7227 10.0438 50.8317C10.0438 50.8317 9.77904 48.8229 9.53052 46.9426H11.6646C11.7943 48.2176 11.8429 49.0854 11.9996 50.1246C13.0585 49.9693 12.9397 49.3693 13.0477 48.5068C13.1071 48.0836 13.1666 47.4515 13.226 46.9426H15.3007C15.171 47.6069 14.8954 49.3104 14.8954 49.3104C14.6577 50.73 13.2368 50.9174 12.0806 50.9282C12.0806 51.6996 12.7722 52.0263 13.8959 52.0263C15.3601 52.0263 16.0084 51.0942 16.1867 49.7175C16.3164 48.7854 16.4839 47.8747 16.6405 46.9373H18.7746C18.5477 48.2604 18.1641 50.521 18.1641 50.521L18.1695 50.5264Z" fill="white"/>
<path d="M19.8768 53.1513V46.9426H22.1082V53.1513H19.8768Z" fill="white"/>
<path d="M27.9269 53.1513C27.257 52.1442 26.6141 51.1156 25.9009 50.146C25.674 50.1675 25.5551 50.8585 25.5551 51.0781V53.1459H23.3508V51.8067C23.3508 50.8746 23.7776 49.6425 25.1283 49.2889C24.507 48.5068 23.8262 47.7301 23.0861 46.9373H25.9387C26.4412 47.6122 27.1922 48.5711 27.7973 49.4818C28.0458 49.3639 28.0458 48.7104 28.0458 48.464V46.9373H30.2663V47.7301C30.2663 48.7372 29.9908 49.8568 28.5266 50.3818C28.8238 50.7942 29.1209 51.196 29.4343 51.6138C29.7693 52.0638 30.1042 52.5352 30.5581 53.1513H27.9323H27.9269Z" fill="white"/>
<path d="M35.3503 49.9694V53.1728L33.1567 53.1621V50.4086C33.1567 49.8194 33.5836 48.5766 34.3237 48.3516H32.2815V46.9695H36.6847V48.3516C35.7284 48.1962 35.3503 49.3801 35.3503 49.9747V49.9694Z" fill="white"/>
<path d="M40.4072 53.4085C39.4401 53.4085 38.365 53.2425 37.8193 53.1139V51.7747C38.284 52.0479 39.3591 52.155 39.9048 52.155C41.2501 52.155 41.7795 51.2336 41.7795 50.039C41.7795 49.2248 41.5904 47.9552 40.5045 47.9445C39.7049 47.9445 39.3969 48.4534 39.3969 49.1498C39.3969 49.5998 40.0182 50.0122 40.4126 49.873V50.9122C39.8886 50.9711 40.0669 50.9604 39.4239 50.9604C38.673 50.9604 37.3223 50.3551 37.3223 49.2087C37.3223 47.5534 38.5055 46.7981 40.4234 46.7981C42.6278 46.7981 44.0001 47.923 44.0001 50.039C44.0001 51.9407 42.7142 53.4085 40.4072 53.4085Z" fill="white"/>
</svg>
