<svg width="48" height="60" viewBox="0 0 48 60" fill="none" xmlns="http://www.w3.org/2000/svg">
<rect x="2.18164" y="1.07141" width="43.6364" height="42.8571" rx="8" fill="black"/>
<path d="M8.72705 7.5V31.5C8.72705 34.8137 11.4133 37.5 14.727 37.5H23.9998M8.72705 7.5L39.2725 37.5M8.72705 7.5H23.9998M39.2725 37.5V13.5C39.2725 10.1863 36.5862 7.5 33.2725 7.5H23.9998M39.2725 37.5H23.9998M23.9998 7.5V37.5" stroke="white"/>
<path d="M8.72705 37.5L23.9998 22.5H27.2725M27.2725 22.5L23.9998 37.5M27.2725 22.5H32.0381M39.2725 7.5L32.0381 22.5M32.0381 22.5L29.4543 27.8571" stroke="white"/>
<path d="M0.170898 59.2551V50.2957H2.56383V59.2551H0.170898Z" fill="#1D1D1B"/>
<path d="M6.83118 56.9478V52.9186C6.83118 52.0692 6.03551 51.7019 5.34592 51.7019C4.65633 51.7019 4.23786 51.742 3.64258 51.8683V50.3071C4.4913 50.1694 4.82725 50.1177 6.04729 50.1177C7.72706 50.1177 9.25947 50.8926 9.25947 52.5513V56.9478H6.82529H6.83118Z" fill="#1D1D1B"/>
<path d="M19.8213 54.1354C19.5502 55.7081 18.0355 57.1372 15.2653 57.1372C13.0257 57.1372 11.2339 56.4886 10.9569 54.4626C10.9569 54.4626 10.6681 52.3102 10.397 50.2957H12.7251C12.8665 51.6617 12.9196 52.5915 13.0905 53.7049C14.2457 53.5385 14.116 52.8957 14.2339 51.9716C14.2987 51.5182 14.3636 50.8409 14.4284 50.2957H16.6917C16.5502 51.0074 16.2496 52.8325 16.2496 52.8325C15.9903 54.3535 14.4402 54.5544 13.1789 54.5659C13.1789 55.3924 13.9333 55.7425 15.1593 55.7425C16.7565 55.7425 17.4638 54.7438 17.6583 53.2687C17.7997 52.2701 17.9824 51.2943 18.1534 50.2899H20.4815C20.2339 51.7076 19.8154 54.1297 19.8154 54.1297L19.8213 54.1354Z" fill="#1D1D1B"/>
<path d="M21.6836 56.9478V50.2957H24.1178V56.9478H21.6836Z" fill="#1D1D1B"/>
<path d="M30.4655 56.9478C29.7347 55.8688 29.0333 54.7668 28.2553 53.7279C28.0078 53.7509 27.8781 54.4913 27.8781 54.7266V56.9421H25.4734V55.5072C25.4734 54.5085 25.939 53.1884 27.4125 52.8096C26.7347 51.9716 25.992 51.1394 25.1846 50.2899H28.2966C28.8447 51.0131 29.6639 52.0405 30.3241 53.0162C30.5952 52.8899 30.5952 52.1897 30.5952 51.9257V50.2899H33.0176V51.1394C33.0176 52.2184 32.717 53.418 31.1197 53.9804C31.4439 54.4224 31.7681 54.8529 32.1099 55.3005C32.4753 55.7827 32.8408 56.2877 33.3358 56.9478H30.4714H30.4655Z" fill="#1D1D1B"/>
<path d="M38.564 53.5385V56.9707L36.1711 56.9593V54.0091C36.1711 53.3778 36.6367 52.0462 37.4442 51.8051H35.2163V50.3243H40.0198V51.8051C38.9766 51.6387 38.564 52.9071 38.564 53.5442V53.5385Z" fill="#1D1D1B"/>
<path d="M44.0808 57.2233C43.0257 57.2233 41.8529 57.0454 41.2576 56.9076V55.4727C41.7644 55.7654 42.9373 55.8802 43.5326 55.8802C45.0002 55.8802 45.5778 54.893 45.5778 53.6131C45.5778 52.7407 45.3715 51.3804 44.1868 51.3689C43.3145 51.3689 42.9786 51.9142 42.9786 52.6603C42.9786 53.1425 43.6564 53.5844 44.0866 53.4352V54.5487C43.5149 54.6118 43.7094 54.6003 43.0081 54.6003C42.1888 54.6003 40.7153 53.9517 40.7153 52.7235C40.7153 50.95 42.0061 50.1407 44.0984 50.1407C46.5031 50.1407 48.0002 51.346 48.0002 53.6131C48.0002 55.6507 46.5975 57.2233 44.0808 57.2233Z" fill="#1D1D1B"/>
</svg>
