<svg width="16" height="16" viewBox="0 0 16 16" fill="none" xmlns="http://www.w3.org/2000/svg">
<path fill-rule="evenodd" clip-rule="evenodd" d="M12.331 11.0709L15.8859 14.6301C16.0447 14.8067 16.0368 15.077 15.8681 15.244L15.246 15.8669C15.1626 15.9511 15.049 15.9985 14.9305 15.9985C14.812 15.9985 14.6985 15.9511 14.615 15.8669L11.0601 12.3077C10.9618 12.2092 10.8726 12.102 10.7935 11.9874L10.127 11.0976C9.02413 11.9793 7.6546 12.4594 6.24327 12.459C3.33502 12.4691 0.807867 10.4605 0.157951 7.62238C-0.491966 4.78425 0.90881 1.87403 3.53098 0.614644C6.15315 -0.644738 9.29689 0.0828322 11.101 2.36661C12.9052 4.65039 12.8882 7.88088 11.0601 10.1455L11.9489 10.7595C12.0877 10.8484 12.2159 10.9529 12.331 11.0709ZM1.79966 6.23046C1.79966 8.68756 3.78913 10.6794 6.24327 10.6794C7.42178 10.6794 8.55203 10.2107 9.38537 9.37636C10.2187 8.54201 10.6869 7.4104 10.6869 6.23046C10.6869 3.77337 8.6974 1.7815 6.24327 1.7815C3.78913 1.7815 1.79966 3.77337 1.79966 6.23046Z" fill="#3B2463"/>
</svg>
