<svg width="40" height="40" viewBox="0 0 40 40" fill="none" xmlns="http://www.w3.org/2000/svg">
<g clip-path="url(#clip0_163_500)">
<path fill-rule="evenodd" clip-rule="evenodd" d="M16.4016 5.55L16.4016 5.55002L16.4016 5.55003C16.1158 5.9016 15.9729 6.07739 15.8203 6.22699C15.1241 6.90905 14.1912 7.29549 13.2166 7.30545C13.0029 7.30763 12.7776 7.28436 12.3269 7.23782C11.3692 7.13892 10.8903 7.08947 10.5082 7.12775C8.72071 7.30683 7.30697 8.72056 7.1279 10.508C7.08962 10.8901 7.13907 11.369 7.23797 12.3267C7.28451 12.7774 7.30778 13.0027 7.30559 13.2165C7.29564 14.191 6.9092 15.124 6.22714 15.8201C6.07754 15.9728 5.90175 16.1157 5.55017 16.4015L5.55015 16.4015C4.80301 17.0087 4.42944 17.3124 4.1863 17.6097C3.04901 19.0002 3.04901 20.9995 4.1863 22.39C4.42944 22.6873 4.803 22.991 5.55011 23.5982L5.55016 23.5983C5.90175 23.884 6.07754 24.0269 6.22714 24.1796C6.9092 24.8757 7.29564 25.8087 7.30559 26.7832C7.30778 26.9969 7.28451 27.2223 7.23798 27.6729L7.23797 27.673C7.13907 28.6307 7.08962 29.1096 7.1279 29.4917C7.30698 31.2791 8.72071 32.6929 10.5082 32.8719C10.8903 32.9102 11.3691 32.8608 12.3269 32.7619L12.327 32.7619C12.7776 32.7153 13.0029 32.6921 13.2166 32.6943C14.1912 32.7042 15.1241 33.0906 15.8203 33.7727C15.9729 33.9223 16.1158 34.098 16.4014 34.4495L16.4016 34.4497C17.0089 35.1968 17.3125 35.5704 17.6098 35.8135C19.0003 36.9508 20.9997 36.9508 22.3902 35.8135C22.6875 35.5704 22.9911 35.1968 23.5984 34.4497C23.8842 34.0981 24.0271 33.9223 24.1797 33.7727C24.8759 33.0906 25.8088 32.7042 26.7834 32.6943C26.9971 32.6921 27.2224 32.7153 27.673 32.7619L27.6731 32.7619C28.6308 32.8608 29.1097 32.9102 29.4918 32.8719C31.2793 32.6929 32.693 31.2791 32.8721 29.4917C32.9104 29.1096 32.8609 28.6307 32.762 27.673L32.762 27.673C32.7155 27.2223 32.6922 26.997 32.6944 26.7832C32.7044 25.8087 33.0908 24.8757 33.7729 24.1796C33.9225 24.0269 34.0983 23.884 34.4498 23.5983C35.197 22.991 35.5706 22.6873 35.8137 22.39C36.951 20.9995 36.951 19.0002 35.8137 17.6097C35.5706 17.3124 35.197 17.0087 34.4498 16.4015L34.4497 16.4014C34.0982 16.1157 33.9224 15.9728 33.7729 15.8201C33.0908 15.124 32.7044 14.191 32.6944 13.2165C32.6922 13.0027 32.7155 12.7774 32.762 12.3267C32.8609 11.369 32.9104 10.8901 32.8721 10.508C32.693 8.72056 31.2793 7.30682 29.4918 7.12775C29.1097 7.08947 28.6309 7.13892 27.6732 7.23781L27.6731 7.23782C27.2224 7.28436 26.9971 7.30763 26.7834 7.30545C25.8088 7.29549 24.8759 6.90905 24.1797 6.22699C24.0271 6.0774 23.8842 5.90161 23.5984 5.55005L23.5984 5.55002L23.5984 5.54999C22.9911 4.80286 22.6875 4.42929 22.3902 4.18615C20.9997 3.04886 19.0003 3.04886 17.6098 4.18615C17.3125 4.42929 17.0089 4.80286 16.4016 5.55ZM25.0506 14.9491C25.5387 15.4373 25.5387 16.2287 25.0506 16.7169L23.0174 18.7501L25.6567 18.7501C26.3471 18.7501 26.9067 19.3097 26.9067 20.0001C26.9067 20.6904 26.3471 21.2501 25.6567 21.2501L23.0186 21.2501L25.051 23.2824C25.5391 23.7706 25.5391 24.562 25.051 25.0502C24.5628 25.5383 23.7713 25.5383 23.2832 25.0502L21.2502 23.0172V25.6566C21.2502 26.3469 20.6906 26.9066 20.0002 26.9066C19.3098 26.9066 18.7502 26.3469 18.7502 25.6566L18.7502 23.0172L16.7172 25.0502C16.2291 25.5384 15.4376 25.5384 14.9495 25.0502C14.4613 24.562 14.4613 23.7706 14.9495 23.2824L16.9818 21.2501H14.3437C13.6533 21.2501 13.0937 20.6904 13.0937 20.0001C13.0937 19.3097 13.6533 18.7501 14.3437 18.7501L16.9831 18.7501L14.9499 16.7168C14.4617 16.2287 14.4617 15.4372 14.9499 14.9491C15.438 14.4609 16.2295 14.4609 16.7176 14.9491L18.7502 16.9817L18.7502 14.3435C18.7502 13.6532 19.3098 13.0935 20.0002 13.0935C20.6906 13.0935 21.2502 13.6532 21.2502 14.3435V16.9817L23.2828 14.9491C23.771 14.4609 24.5624 14.4609 25.0506 14.9491Z" fill="#3B2463"/>
</g>
<defs>
<clipPath id="clip0_163_500">
<rect width="40" height="40" fill="white"/>
</clipPath>
</defs>
</svg>
