<svg width="40" height="40" viewBox="0 0 40 40" fill="none" xmlns="http://www.w3.org/2000/svg">
<g clip-path="url(#clip0_163_519)">
<path fill-rule="evenodd" clip-rule="evenodd" d="M17.3783 4.11135C19.0006 3.17472 20.9994 3.17472 22.6217 4.11135L32.5146 9.82301C32.927 10.0611 33.2991 10.3506 33.6249 10.6806L25.9002 15.3214C24.6308 13.415 22.4621 12.1589 20.0001 12.1589C17.4977 12.1589 15.2983 13.4565 14.0383 15.4156L6.23666 10.8265C6.59398 10.4354 7.01334 10.0956 7.48544 9.82301L17.3783 4.11135ZM26.9007 17.6368L34.9062 12.8273C35.0567 13.3184 35.1362 13.8355 35.1362 14.3639V25.7872C35.1362 27.6605 34.1369 29.3914 32.5146 30.3281L22.6217 36.0397C22.1867 36.2909 21.7247 36.4747 21.2501 36.5911V26.2156C24.5659 25.6252 27.0834 22.7277 27.0834 19.2422C27.0834 18.69 27.0202 18.1526 26.9007 17.6368ZM18.7501 26.2156V36.5912C18.2754 36.4747 17.8134 36.2909 17.3783 36.0397L7.48544 30.3281C5.86315 29.3914 4.86377 27.6605 4.86377 25.7872V14.3639C4.86377 13.9048 4.92378 13.4543 5.03827 13.022L13.0744 17.7491C12.9711 18.2305 12.9167 18.73 12.9167 19.2422C12.9167 22.7277 15.4342 25.6252 18.7501 26.2156ZM15.4167 19.2422C15.4167 16.7109 17.4688 14.6589 20.0001 14.6589C22.5314 14.6589 24.5834 16.7109 24.5834 19.2422C24.5834 21.7735 22.5314 23.8255 20.0001 23.8255C17.4688 23.8255 15.4167 21.7735 15.4167 19.2422ZM20.0001 15.8047C20.6904 15.8047 21.2501 16.3644 21.2501 17.0547V17.9922H22.1876C22.8779 17.9922 23.4376 18.5519 23.4376 19.2422C23.4376 19.9326 22.8779 20.4922 22.1876 20.4922H21.2501V21.4297C21.2501 22.1201 20.6904 22.6797 20.0001 22.6797C19.3097 22.6797 18.7501 22.1201 18.7501 21.4297V20.4922H17.8126C17.1222 20.4922 16.5626 19.9326 16.5626 19.2422C16.5626 18.5519 17.1222 17.9922 17.8126 17.9922H18.7501V17.0547C18.7501 16.3644 19.3097 15.8047 20.0001 15.8047Z" fill="#3B2463"/>
</g>
<defs>
<clipPath id="clip0_163_519">
<rect width="40" height="40" fill="white"/>
</clipPath>
</defs>
</svg>
