<svg width="40" height="40" viewBox="0 0 40 40" fill="none" xmlns="http://www.w3.org/2000/svg">
<g clip-path="url(#clip0_163_508)">
<path fill-rule="evenodd" clip-rule="evenodd" d="M31.6668 7.5H8.3335C6.95278 7.5 5.8335 8.61929 5.8335 10V10.274C5.8335 11.6547 6.95278 12.774 8.3335 12.774H10.223C11.3533 12.7083 12.7345 12.7083 14.4794 12.7083H25.5209C27.2658 12.7083 28.647 12.7083 29.7774 12.774H31.6668C33.0475 12.774 34.1668 11.6547 34.1668 10.274V10C34.1668 8.61929 33.0475 7.5 31.6668 7.5ZM3.3335 10.274C3.3335 12.0004 4.20846 13.5224 5.53913 14.4208C5.02815 14.881 4.58937 15.4192 4.24036 16.018C3.3335 17.574 3.3335 19.6674 3.3335 23.8542C3.3335 28.041 3.3335 30.1344 4.24036 31.6904C4.82031 32.6855 5.64815 33.5133 6.6432 34.0932C8.19919 35.0001 10.2926 35.0001 14.4794 35.0001H25.5209C29.7077 35.0001 31.8011 35.0001 33.3571 34.0932C34.3522 33.5133 35.18 32.6855 35.76 31.6904C36.6668 30.1344 36.6668 28.041 36.6668 23.8542C36.6668 19.6674 36.6668 17.574 35.76 16.018C35.411 15.4192 34.9722 14.881 34.4612 14.4208C35.7919 13.5224 36.6668 12.0004 36.6668 10.274V10C36.6668 7.23858 34.4283 5 31.6668 5H8.3335C5.57207 5 3.3335 7.23858 3.3335 10V10.274ZM23.384 23.0714C23.8722 22.5832 23.8722 21.7918 23.384 21.3036C22.8959 20.8155 22.1044 20.8155 21.6163 21.3036L19.1668 23.7531L18.384 22.9703C17.8959 22.4821 17.1044 22.4821 16.6163 22.9703C16.1281 23.4584 16.1281 24.2499 16.6163 24.7381L18.2829 26.4047C18.7711 26.8929 19.5626 26.8929 20.0507 26.4047L23.384 23.0714Z" fill="#3B2463"/>
</g>
<defs>
<clipPath id="clip0_163_508">
<rect width="40" height="40" fill="white"/>
</clipPath>
</defs>
</svg>
