<svg width="155" height="48" viewBox="0 0 155 48" fill="none" xmlns="http://www.w3.org/2000/svg">
<circle cx="24" cy="24" r="21" fill="#1ED760"/>
<path d="M33.5465 32.4344C33.1877 33.0037 32.4223 33.1631 31.8244 32.8215C27.1124 30.089 21.2046 29.4742 14.2204 30.9771C13.5506 31.1137 12.8809 30.7266 12.7374 30.089C12.5939 29.4514 13.0005 28.8138 13.6702 28.6772C21.3002 27.0149 27.8539 27.7208 33.116 30.7949C33.7139 31.1365 33.9053 31.8652 33.5465 32.4344ZM35.9862 27.2426C35.5318 27.9485 34.575 28.1534 33.8335 27.7436C28.4519 24.5783 20.2478 23.6675 13.8855 25.512C13.0483 25.7397 12.1873 25.307 11.9481 24.5328C11.7089 23.7358 12.1634 22.916 13.0005 22.6883C20.2717 20.5934 29.3129 21.5953 35.5078 25.2159C36.2015 25.6258 36.4407 26.5367 35.9862 27.2426ZM36.2015 21.823C29.7435 18.1796 19.0997 17.8381 12.9288 19.6142C11.9481 19.9102 10.8957 19.3865 10.5847 18.4301C10.2738 17.4965 10.8478 16.4945 11.8285 16.1985C18.9084 14.1491 30.6763 14.559 38.091 18.7489C38.976 19.2499 39.263 20.3429 38.7368 21.1854C38.2345 22.0507 37.0865 22.3468 36.2015 21.823Z" fill="white"/>
<path d="M68.5419 34.336C67.1046 34.336 65.8446 34.084 64.7619 33.58C63.6793 33.076 62.8299 32.3573 62.2139 31.424C61.6166 30.4907 61.3086 29.38 61.2899 28.092H64.4259C64.4446 29.1373 64.8086 30.024 65.5179 30.752C66.2273 31.48 67.2259 31.844 68.5139 31.844C69.6526 31.844 70.5393 31.5733 71.1739 31.032C71.8273 30.472 72.1539 29.7627 72.1539 28.904C72.1539 28.2133 71.9953 27.6533 71.6779 27.224C71.3793 26.7947 70.9593 26.44 70.4179 26.16C69.8953 25.88 69.2886 25.628 68.5979 25.404C67.9073 25.18 67.1793 24.9373 66.4139 24.676C64.9019 24.172 63.7633 23.5187 62.9979 22.716C62.2513 21.9133 61.8779 20.8587 61.8779 19.552C61.8593 18.4507 62.1113 17.4893 62.6339 16.668C63.1753 15.8467 63.9219 15.212 64.8739 14.764C65.8446 14.2973 66.9739 14.064 68.2619 14.064C69.5313 14.064 70.6419 14.2973 71.5939 14.764C72.5646 15.2307 73.3206 15.884 73.8619 16.724C74.4033 17.5453 74.6833 18.5067 74.7019 19.608H71.5659C71.5659 19.104 71.4353 18.628 71.1739 18.18C70.9126 17.7133 70.5299 17.3307 70.0259 17.032C69.5219 16.7333 68.9059 16.584 68.1779 16.584C67.2446 16.5653 66.4699 16.7987 65.8539 17.284C65.2566 17.7693 64.9579 18.4413 64.9579 19.3C64.9579 20.0653 65.1819 20.6533 65.6299 21.064C66.0779 21.4747 66.6939 21.82 67.4779 22.1C68.2619 22.3613 69.1579 22.6693 70.1659 23.024C71.1366 23.3413 72.0046 23.724 72.7699 24.172C73.5353 24.62 74.1419 25.208 74.5899 25.936C75.0566 26.664 75.2899 27.588 75.2899 28.708C75.2899 29.6973 75.0379 30.6213 74.5339 31.48C74.0299 32.32 73.2739 33.0107 72.2659 33.552C71.2579 34.0747 70.0166 34.336 68.5419 34.336ZM78.4229 40.16V20.112H81.0829L81.3909 22.268C81.8389 21.6147 82.4549 21.036 83.2389 20.532C84.0229 20.028 85.0309 19.776 86.2629 19.776C87.6069 19.776 88.7922 20.0933 89.8189 20.728C90.8455 21.3627 91.6482 22.2307 92.2269 23.332C92.8242 24.4333 93.1229 25.684 93.1229 27.084C93.1229 28.484 92.8242 29.7347 92.2269 30.836C91.6482 31.9187 90.8455 32.7773 89.8189 33.412C88.7922 34.028 87.5975 34.336 86.2349 34.336C85.1522 34.336 84.1909 34.1213 83.3509 33.692C82.5295 33.2627 81.8762 32.656 81.3909 31.872V40.16H78.4229ZM85.7309 31.76C87.0002 31.76 88.0455 31.3307 88.8669 30.472C89.6882 29.5947 90.0989 28.456 90.0989 27.056C90.0989 26.1413 89.9122 25.3293 89.5389 24.62C89.1655 23.9107 88.6522 23.36 87.9989 22.968C87.3455 22.5573 86.5895 22.352 85.7309 22.352C84.4615 22.352 83.4162 22.7907 82.5949 23.668C81.7922 24.5453 81.3909 25.6747 81.3909 27.056C81.3909 28.456 81.7922 29.5947 82.5949 30.472C83.4162 31.3307 84.4615 31.76 85.7309 31.76ZM102.829 34.336C101.504 34.336 100.309 34.0373 99.245 33.44C98.1997 32.824 97.369 31.9747 96.753 30.892C96.137 29.7907 95.829 28.512 95.829 27.056C95.829 25.6 96.137 24.3307 96.753 23.248C97.3877 22.1467 98.237 21.2973 99.301 20.7C100.365 20.084 101.55 19.776 102.857 19.776C104.182 19.776 105.368 20.084 106.413 20.7C107.477 21.2973 108.317 22.1467 108.933 23.248C109.568 24.3307 109.885 25.6 109.885 27.056C109.885 28.512 109.568 29.7907 108.933 30.892C108.317 31.9747 107.477 32.824 106.413 33.44C105.349 34.0373 104.154 34.336 102.829 34.336ZM102.829 31.788C103.538 31.788 104.192 31.6107 104.789 31.256C105.405 30.9013 105.9 30.3787 106.273 29.688C106.646 28.9787 106.833 28.1013 106.833 27.056C106.833 26.0107 106.646 25.1427 106.273 24.452C105.918 23.7427 105.433 23.2107 104.817 22.856C104.22 22.5013 103.566 22.324 102.857 22.324C102.148 22.324 101.485 22.5013 100.869 22.856C100.272 23.2107 99.7864 23.7427 99.413 24.452C99.0397 25.1427 98.853 26.0107 98.853 27.056C98.853 28.1013 99.0397 28.9787 99.413 29.688C99.7864 30.3787 100.272 30.9013 100.869 31.256C101.466 31.6107 102.12 31.788 102.829 31.788ZM118.372 34C117.009 34 115.927 33.6733 115.124 33.02C114.321 32.348 113.92 31.1627 113.92 29.464V22.604H111.54V20.112H113.92L114.284 16.584H116.888V20.112H120.808V22.604H116.888V29.464C116.888 30.2293 117.047 30.7613 117.364 31.06C117.7 31.34 118.269 31.48 119.072 31.48H120.668V34H118.372ZM125.548 17.48C124.988 17.48 124.522 17.312 124.148 16.976C123.794 16.6213 123.616 16.1827 123.616 15.66C123.616 15.1373 123.794 14.708 124.148 14.372C124.522 14.0173 124.988 13.84 125.548 13.84C126.108 13.84 126.566 14.0173 126.92 14.372C127.294 14.708 127.48 15.1373 127.48 15.66C127.48 16.1827 127.294 16.6213 126.92 16.976C126.566 17.312 126.108 17.48 125.548 17.48ZM124.064 34V20.112H127.032V34H124.064ZM131.65 34V22.604H129.662V20.112H131.65V18.096C131.65 16.584 132.024 15.5013 132.77 14.848C133.536 14.176 134.609 13.84 135.99 13.84H137.446V16.36H136.438C135.785 16.36 135.318 16.5 135.038 16.78C134.758 17.0413 134.618 17.4893 134.618 18.124V20.112H137.81V22.604H134.618V34H131.65ZM142.254 40.16L145.586 32.852H144.774L139.286 20.112H142.506L146.762 30.388L151.214 20.112H154.35L145.39 40.16H142.254Z" fill="#1D1D1B"/>
</svg>
