<svg width="147" height="48" viewBox="0 0 147 48" fill="none" xmlns="http://www.w3.org/2000/svg">
<ellipse cx="24.5" cy="24.0232" rx="19.1416" ry="19.1648" fill="url(#paint0_linear_342_579)"/>
<path d="M20.2327 12.7659L32.8443 10.2594C33.419 10.1452 33.9546 10.5849 33.9546 11.1708V30.4941C33.9546 32.1391 32.8043 33.56 31.1953 33.9024L30.0811 34.1394C28.1402 34.5524 26.3119 33.0722 26.3119 31.0878C26.3119 29.69 27.2542 28.4678 28.606 28.112L31.7638 27.281C32.1924 27.1682 32.4911 26.7807 32.4911 26.3375V17.3659C32.4911 16.9534 32.1122 16.6451 31.7083 16.7291L21.1989 18.9134C20.8756 18.9806 20.6438 19.2655 20.6438 19.5957V32.9933C20.6438 34.7927 19.3848 36.3467 17.6246 36.7201L16.8606 36.8821C14.8607 37.3064 12.9779 35.781 12.9779 33.7367C12.9779 32.4338 13.8548 31.294 15.1142 30.9601L18.4196 30.0837C18.827 29.9757 19.1106 29.607 19.1106 29.1855V14.133C19.1106 13.468 19.5805 12.8956 20.2327 12.7659Z" fill="url(#paint1_radial_342_579)"/>
<path fill-rule="evenodd" clip-rule="evenodd" d="M45.5 24C45.5 35.598 36.098 45 24.5 45C12.902 45 3.5 35.598 3.5 24C3.5 12.402 12.902 3 24.5 3C36.098 3 45.5 12.402 45.5 24ZM43.6416 24.0232C43.6416 34.6077 35.0716 43.188 24.5 43.188C13.9284 43.188 5.35841 34.6077 5.35841 24.0232C5.35841 13.4388 13.9284 4.85841 24.5 4.85841C35.0716 4.85841 43.6416 13.4388 43.6416 24.0232Z" fill="url(#paint2_radial_342_579)"/>
<path d="M62.8044 34V14.4H65.7724V34H62.8044ZM74.3417 34V16.808H68.5457V14.4H83.0777V16.808H77.3097V34H74.3417ZM89.4727 34.336C87.7927 34.336 86.4673 33.8133 85.4967 32.768C84.5447 31.7227 84.0687 30.164 84.0687 28.092V20.112H87.0367V27.784C87.0367 30.472 88.138 31.816 90.3407 31.816C91.442 31.816 92.3473 31.424 93.0567 30.64C93.766 29.856 94.1207 28.736 94.1207 27.28V20.112H97.0887V34H94.4567L94.2327 31.564C93.8033 32.4227 93.1687 33.104 92.3287 33.608C91.5073 34.0933 90.5553 34.336 89.4727 34.336ZM100.864 34V20.112H103.496L103.72 22.548C104.15 21.6893 104.775 21.0173 105.596 20.532C106.436 20.028 107.398 19.776 108.48 19.776C110.16 19.776 111.476 20.2987 112.428 21.344C113.399 22.3893 113.884 23.948 113.884 26.02V34H110.944V26.328C110.944 23.64 109.843 22.296 107.64 22.296C106.539 22.296 105.624 22.688 104.896 23.472C104.187 24.256 103.832 25.376 103.832 26.832V34H100.864ZM123.876 34.336C122.513 34.336 121.3 34.0373 120.236 33.44C119.191 32.824 118.369 31.9747 117.772 30.892C117.175 29.8093 116.876 28.5493 116.876 27.112C116.876 25.656 117.165 24.3773 117.744 23.276C118.341 22.1747 119.163 21.316 120.208 20.7C121.272 20.084 122.504 19.776 123.904 19.776C125.267 19.776 126.452 20.084 127.46 20.7C128.468 21.2973 129.252 22.1 129.812 23.108C130.372 24.116 130.652 25.2267 130.652 26.44C130.652 26.6267 130.643 26.832 130.624 27.056C130.624 27.2613 130.615 27.4947 130.596 27.756H119.788C119.881 29.1 120.32 30.1267 121.104 30.836C121.907 31.5267 122.831 31.872 123.876 31.872C124.716 31.872 125.416 31.6853 125.976 31.312C126.555 30.92 126.984 30.3973 127.264 29.744H130.232C129.859 31.0507 129.112 32.1427 127.992 33.02C126.891 33.8973 125.519 34.336 123.876 34.336ZM123.876 22.212C122.887 22.212 122.009 22.5107 121.244 23.108C120.479 23.6867 120.012 24.564 119.844 25.74H127.684C127.628 24.6573 127.245 23.7987 126.536 23.164C125.827 22.5293 124.94 22.212 123.876 22.212ZM139.275 34.336C137.521 34.336 136.074 33.9067 134.935 33.048C133.797 32.1893 133.143 31.0507 132.975 29.632H135.971C136.121 30.2667 136.475 30.8173 137.035 31.284C137.595 31.732 138.333 31.956 139.247 31.956C140.143 31.956 140.797 31.7693 141.207 31.396C141.618 31.0227 141.823 30.5933 141.823 30.108C141.823 29.3987 141.534 28.9227 140.955 28.68C140.395 28.4187 139.611 28.1853 138.603 27.98C137.819 27.812 137.035 27.588 136.251 27.308C135.486 27.028 134.842 26.636 134.319 26.132C133.815 25.6093 133.563 24.9093 133.563 24.032C133.563 22.8187 134.03 21.8107 134.963 21.008C135.897 20.1867 137.203 19.776 138.883 19.776C140.433 19.776 141.683 20.1493 142.635 20.896C143.606 21.6427 144.175 22.6973 144.343 24.06H141.487C141.394 23.4627 141.114 22.996 140.647 22.66C140.199 22.324 139.593 22.156 138.827 22.156C138.081 22.156 137.502 22.3147 137.091 22.632C136.681 22.9307 136.475 23.3227 136.475 23.808C136.475 24.2933 136.755 24.676 137.315 24.956C137.894 25.236 138.65 25.488 139.583 25.712C140.517 25.9173 141.375 26.16 142.159 26.44C142.962 26.7013 143.606 27.0933 144.091 27.616C144.577 28.1387 144.819 28.904 144.819 29.912C144.838 31.1813 144.343 32.236 143.335 33.076C142.346 33.916 140.993 34.336 139.275 34.336Z" fill="#1D1D1B"/>
<defs>
<linearGradient id="paint0_linear_342_579" x1="24.5" y1="4.8584" x2="24.5" y2="43.188" gradientUnits="userSpaceOnUse">
<stop stop-color="white"/>
<stop offset="1" stop-color="#DDE2E7"/>
</linearGradient>
<radialGradient id="paint1_radial_342_579" cx="0" cy="0" r="1" gradientUnits="userSpaceOnUse" gradientTransform="translate(12.9779 41.6084) rotate(-55.1325) scale(42.0164 32.9951)">
<stop stop-color="#7A66FB"/>
<stop offset="0.440198" stop-color="#52A2F4"/>
<stop offset="0.702" stop-color="#FC5D6D"/>
<stop offset="1" stop-color="#E85E7B"/>
</radialGradient>
<radialGradient id="paint2_radial_342_579" cx="0" cy="0" r="1" gradientUnits="userSpaceOnUse" gradientTransform="translate(12.9779 41.6084) rotate(-55.1325) scale(42.0164 32.9951)">
<stop stop-color="#7A66FB"/>
<stop offset="0.440198" stop-color="#52A2F4"/>
<stop offset="0.702" stop-color="#FC5D6D"/>
<stop offset="1" stop-color="#E85E7B"/>
</radialGradient>
</defs>
</svg>
