<svg width="97" height="48" viewBox="0 0 97 48" fill="none" xmlns="http://www.w3.org/2000/svg">
<path d="M50.6813 4.8631C50.0963 5.0891 49.9413 5.32313 49.9353 5.77313V30.3801C49.9473 30.8541 50.3093 31.2501 50.7723 31.2961C50.7923 31.2971 72.1223 31.3081 72.2623 31.3081C76.5443 31.3081 80.0143 27.8381 80.0143 23.5551C80.0143 19.2721 76.5443 15.8031 72.2623 15.8031C71.233 15.8026 70.2139 16.0069 69.2643 16.4041C68.6473 9.41811 62.7894 3.93713 55.6414 3.93713C53.9454 3.9398 52.2644 4.25434 50.6823 4.86511M47.4983 6.6051L47.1483 24.0691L47.4983 30.4071C47.5103 30.8701 47.8883 31.2511 48.3523 31.2511C48.5776 31.2493 48.7932 31.1591 48.9528 30.9999C49.1123 30.8408 49.203 30.6254 49.2053 30.4001V30.4061L49.5853 24.0681L49.2053 6.60211C49.1933 6.13511 48.8153 5.75214 48.3523 5.75214C47.8893 5.75214 47.5023 6.1361 47.4983 6.6051ZM44.9053 8.05511L44.6053 24.0621C44.6053 24.0721 44.9053 30.4981 44.9053 30.4981C44.9173 30.9331 45.2713 31.2911 45.7053 31.2911C45.9162 31.2888 46.1178 31.2044 46.2673 31.0557C46.4169 30.9071 46.5027 30.706 46.5063 30.4951L46.8433 24.0681L46.5063 8.05408C46.4943 7.61608 46.1393 7.25909 45.7063 7.25909C45.4956 7.26166 45.2943 7.34626 45.1449 7.49487C44.9955 7.64349 44.91 7.84444 44.9064 8.05511M37.1523 9.73309L36.7554 24.0631L37.1533 30.6431C37.1633 30.9951 37.4533 31.2731 37.7913 31.2731C38.1293 31.2731 38.4183 30.9931 38.4293 30.6401V30.6371L38.8763 24.0621L38.4293 9.73212C38.4173 9.37512 38.1373 9.09711 37.7913 9.09711C37.4453 9.09711 37.1614 9.37512 37.1514 9.73212M39.7153 10.0991L39.3513 24.0641L39.7163 30.5791C39.7283 30.9621 40.0283 31.2651 40.4093 31.2651C40.7903 31.2651 41.0893 30.9611 41.1013 30.5751V30.5791L41.5013 24.0631L41.1013 10.0981C41.0893 9.71108 40.7873 9.40808 40.4093 9.40808C40.0313 9.40808 39.7243 9.71208 39.7153 10.0981M34.6083 10.1981L34.1783 24.0611L34.6083 30.6811C34.6117 30.8344 34.6746 30.9805 34.7838 31.0882C34.893 31.1959 35.04 31.2569 35.1934 31.2581C35.5084 31.2581 35.7653 31.0051 35.7783 30.6781L36.2623 24.0611L35.7783 10.1971C35.7653 9.87208 35.5084 9.61713 35.1934 9.61713C35.0395 9.61841 34.8921 9.67973 34.7828 9.78809C34.6735 9.89644 34.6109 10.0432 34.6083 10.1971M42.3003 10.6091L41.9663 24.0631L42.3003 30.5381C42.3123 30.9511 42.6374 31.2761 43.0474 31.2761C43.4574 31.2761 43.7834 30.9511 43.7924 30.5341V30.5391L44.1663 24.0641L43.7924 10.6081C43.7905 10.4113 43.7114 10.223 43.572 10.084C43.4326 9.94504 43.2442 9.86642 43.0474 9.86511C42.6474 9.86511 42.3073 10.1921 42.3003 10.6091ZM32.0844 11.2631C32.0844 11.2641 31.6243 24.0581 31.6243 24.0581L32.0844 30.7461C32.0884 30.885 32.1459 31.017 32.2448 31.1146C32.3436 31.2122 32.4764 31.2678 32.6154 31.2701C32.8984 31.2701 33.1313 31.0401 33.1453 30.7441L33.6653 24.0581L33.1453 11.2631C33.1303 10.9681 32.8974 10.7371 32.6154 10.7371C32.4761 10.7394 32.3431 10.7954 32.2441 10.8934C32.1452 10.9914 32.0879 11.1239 32.0844 11.2631ZM29.5813 13.6431L29.0883 24.0581L29.5813 30.7881C29.5943 31.0511 29.8033 31.2581 30.0583 31.2581C30.183 31.2552 30.3018 31.2048 30.3906 31.1172C30.4794 31.0297 30.5315 30.9117 30.5363 30.7871V30.7891L31.0944 24.0591L30.5363 13.6441C30.5203 13.3801 30.3103 13.1721 30.0583 13.1721C29.8063 13.1721 29.5943 13.3791 29.5813 13.6431ZM24.6353 17.1561L24.0793 24.0561L24.6353 30.7311C24.6513 30.9381 24.8094 31.0931 25.0054 31.0931C25.2014 31.0931 25.3574 30.9381 25.3754 30.7311L26.0054 24.0561L25.3754 17.1541C25.3574 16.9491 25.1994 16.7921 25.0054 16.7921C24.8114 16.7921 24.6503 16.9481 24.6353 17.1561ZM22.1923 17.3391C22.1923 17.3401 21.6023 24.0551 21.6023 24.0551L22.1923 30.5251C22.2103 30.7051 22.3423 30.8251 22.5083 30.8251C22.6743 30.8251 22.8044 30.6951 22.8234 30.5151L23.4913 24.0451L22.8243 17.3291C22.8043 17.1491 22.6713 17.0191 22.5083 17.0191C22.3453 17.0191 22.2083 17.1491 22.1923 17.3291M27.0983 17.6461L26.5743 24.0461L27.0983 30.7761C27.1143 31.0131 27.2944 31.1941 27.5214 31.1941C27.7484 31.1941 27.9273 31.0141 27.9443 30.7771L28.5393 24.0471L27.9443 17.6431C27.9263 17.4081 27.7464 17.2291 27.5214 17.2291C27.2964 17.2291 27.1133 17.4071 27.0983 17.6461ZM19.7703 18.3861C19.7703 18.3871 19.1503 24.0461 19.1503 24.0461L19.7703 29.5821C19.7883 29.7301 19.9003 29.8361 20.0333 29.8361C20.1663 29.8361 20.2733 29.7321 20.2933 29.5831L20.9973 24.0461L20.2933 18.3861C20.2703 18.2361 20.1634 18.1321 20.0314 18.1321C19.8994 18.1321 19.7863 18.2391 19.7683 18.3861M17.4484 20.5461L16.9883 24.0461L17.4484 27.4861C17.4664 27.6311 17.5703 27.7331 17.7013 27.7331C17.8323 27.7331 17.9313 27.6311 17.9513 27.4871L18.4973 24.0451L17.9513 20.5451C17.9313 20.4011 17.8273 20.3001 17.7013 20.3001C17.5753 20.3001 17.4654 20.4021 17.4484 20.5461Z" fill="url(#paint0_linear_342_563)"/>
<path d="M65.8243 39.43C65.8243 42.166 67.2743 44.064 69.7283 44.064C72.1823 44.064 73.6313 42.164 73.6313 39.43C73.6313 36.696 72.1793 34.794 69.7283 34.794C67.2773 34.794 65.8243 36.694 65.8243 39.43ZM67.6743 39.43C67.6743 37.824 68.2774 36.578 69.7294 36.578C71.1814 36.578 71.7823 37.824 71.7823 39.43C71.7823 41.036 71.1774 42.28 69.7294 42.28C68.2814 42.28 67.6743 41.036 67.6743 39.43ZM50.7513 39.43C50.7513 42.267 52.3293 44.064 54.6793 44.064C56.3123 44.064 57.3893 43.307 58.0063 42.034L56.4913 41.134C56.0163 41.93 55.5393 42.277 54.7313 42.277C53.3813 42.277 52.5963 41.044 52.5963 39.427C52.5963 37.757 53.3703 36.575 54.7163 36.575C55.5233 36.575 56.0384 36.935 56.3604 37.55L58.0303 36.78C57.4633 35.61 56.4354 34.78 54.7404 34.78C52.3904 34.78 50.7473 36.68 50.7473 39.416M13.1733 39.416C13.1733 42.152 14.6233 44.05 17.0773 44.05C19.5313 44.05 20.9803 42.15 20.9803 39.416C20.9803 36.682 19.5283 34.78 17.0773 34.78C14.6263 34.78 13.1733 36.68 13.1733 39.416ZM15.0233 39.416C15.0233 37.81 15.6264 36.564 17.0784 36.564C18.5304 36.564 19.1333 37.81 19.1333 39.416C19.1333 41.022 18.5304 42.266 17.0784 42.266C15.6264 42.266 15.0233 41.022 15.0233 39.416ZM5.12329 37.413C5.12329 39.183 6.2813 39.71 7.9353 40.096C9.6313 40.481 9.94031 40.739 9.94031 41.316C9.94031 41.996 9.43827 42.291 8.37427 42.291C7.51227 42.291 6.70434 41.997 6.07434 41.263L4.77734 42.419C5.45734 43.422 6.76926 44.049 8.27026 44.049C10.7253 44.049 11.8003 42.893 11.8003 41.185C11.8003 39.233 10.2203 38.747 8.79333 38.413C7.36633 38.079 6.98328 37.898 6.98328 37.333C6.98328 36.936 7.30333 36.523 8.26733 36.523C9.09133 36.523 9.7323 36.859 10.3103 37.448L11.6063 36.191C10.7593 35.306 9.73228 34.779 8.33228 34.779C6.56028 34.779 5.12231 35.781 5.12231 37.412M84.9193 34.919V43.919H87.6033C89.9153 43.919 92.1993 42.585 92.1993 39.426C92.1993 36.136 90.2993 34.929 87.7313 34.929L84.9193 34.919ZM86.7163 36.666H87.6703C89.5673 36.666 90.3502 37.578 90.3502 39.416C90.3502 41.059 89.4903 42.163 87.6033 42.163H86.7163V36.666ZM80.8743 34.919V39.967C80.8743 41.405 80.1683 42.291 79.0273 42.291C77.8863 42.291 77.1873 41.379 77.1873 39.941V34.918H75.3903V39.966C75.3903 42.586 76.8534 44.049 79.0264 44.049C81.3124 44.049 82.6724 42.546 82.6724 39.941V34.918L80.8743 34.919ZM59.5763 34.919V43.919H64.9783V42.147H61.3743V34.93L59.5763 34.919ZM41.8643 34.919V43.919H44.5474C46.8594 43.919 49.1453 42.585 49.1453 39.426C49.1453 36.136 47.2454 34.929 44.6774 34.929L41.8643 34.919ZM43.6613 36.666H44.6133C46.5133 36.666 47.2974 37.578 47.2974 39.416C47.2974 41.059 46.4354 42.163 44.5474 42.163H43.6624L43.6613 36.666ZM37.7814 34.919V38.721L37.8063 40.686C37.6903 40.453 37.4063 40.006 37.1783 39.671L33.9913 34.919H32.2714V43.919H34.0433V39.964L34.0164 37.999C34.1324 38.229 34.4284 38.679 34.6464 39.014L37.9463 43.919H39.5524V34.919H37.7814ZM28.2283 34.919V39.967C28.2283 41.405 27.5183 42.291 26.3783 42.291C25.2383 42.291 24.5413 41.379 24.5413 39.941V34.918H22.7413V39.966C22.7413 42.586 24.2083 44.049 26.3773 44.049C28.6613 44.049 30.0233 42.546 30.0233 39.941V34.918L28.2283 34.919Z" fill="url(#paint1_linear_342_563)"/>
<defs>
<linearGradient id="paint0_linear_342_563" x1="118.521" y1="-16.7968" x2="118.521" y2="39.8651" gradientUnits="userSpaceOnUse">
<stop stop-color="#FAA21B"/>
<stop offset="1" stop-color="#F15623"/>
</linearGradient>
<linearGradient id="paint1_linear_342_563" x1="156.856" y1="-43.9828" x2="156.856" y2="44.065" gradientUnits="userSpaceOnUse">
<stop stop-color="#FAA21B"/>
<stop offset="1" stop-color="#F15623"/>
</linearGradient>
</defs>
</svg>
