<svg width="175" height="34" viewBox="0 0 175 34" fill="none" xmlns="http://www.w3.org/2000/svg">
<g clip-path="url(#clip0_342_569)">
<path d="M171.852 14.3011L168.616 22.4186H168.519L165.144 14.3011H162.092L167.15 25.6486L164.26 31.9598H167.225L175.022 14.3011H171.852ZM148.99 7.56485H146.164V26.2861H148.99V7.56485ZM138.357 7.56485H131.563V26.2861H134.41V19.1992H138.368C139.166 19.2261 139.961 19.0966 140.708 18.8182C141.454 18.5397 142.138 18.1179 142.717 17.5772C143.297 17.0365 143.762 16.3877 144.086 15.6684C144.409 14.9492 144.584 14.1738 144.601 13.3873C144.584 12.5995 144.409 11.8227 144.085 11.1022C143.761 10.3817 143.295 9.73169 142.714 9.19C142.133 8.64831 141.449 8.22571 140.701 7.94673C139.953 7.66775 139.156 7.53794 138.357 7.56485ZM138.432 16.5855H134.41V10.2105H138.443C139.301 10.2105 140.124 10.5463 140.731 11.1441C141.338 11.7418 141.678 12.5526 141.678 13.398C141.678 14.2434 141.338 15.0541 140.731 15.6519C140.124 16.2496 139.301 16.5855 138.443 16.5855H138.432ZM155.956 13.8973C154.921 13.8389 153.892 14.0791 152.993 14.5887C152.095 15.0982 151.367 15.855 150.899 16.7661L153.422 17.8286C153.672 17.3781 154.05 17.0094 154.51 16.7678C154.97 16.5262 155.491 16.4222 156.01 16.4686C156.366 16.4334 156.726 16.468 157.069 16.5703C157.412 16.6726 157.731 16.8407 158.007 17.0648C158.284 17.289 158.513 17.5648 158.681 17.8764C158.849 18.1879 158.953 18.5292 158.986 18.8805V19.0717C158.082 18.5899 157.07 18.3379 156.042 18.3386C153.336 18.3386 150.575 19.8048 150.575 22.5886C150.575 25.0961 152.786 26.7111 155.288 26.7111C156 26.7556 156.71 26.6092 157.345 26.2874C157.979 25.9656 158.513 25.4805 158.889 24.8836H158.997V26.3286H161.758V19.1248C161.758 15.7992 159.234 13.9505 155.978 13.9505L155.956 13.8973ZM155.622 24.1611C154.694 24.1611 153.4 23.6936 153.4 22.5673C153.4 21.1223 155.007 20.5698 156.409 20.5698C157.313 20.546 158.207 20.7626 158.997 21.1967C158.893 22.0092 158.494 22.7571 157.873 23.3021C157.253 23.847 156.453 24.1522 155.622 24.1611ZM53.3696 26.6898C50.6862 26.6986 48.1074 25.6652 46.1918 23.8137C44.2763 21.9621 43.1783 19.4415 43.1357 16.798C43.1783 14.1544 44.2763 11.6338 46.1918 9.78227C48.1074 7.93073 50.6862 6.89738 53.3696 6.9061C54.6482 6.88512 55.9183 7.11584 57.1052 7.58473C58.2922 8.05362 59.3723 8.75125 60.282 9.63672L58.3302 11.5386C57.0063 10.2605 55.2231 9.55006 53.3696 9.56235C51.4333 9.56235 49.5764 10.3202 48.2073 11.6692C46.8381 13.0181 46.0689 14.8477 46.0689 16.7555C46.0689 18.6632 46.8381 20.4928 48.2073 21.8418C49.5764 23.1908 51.4333 23.9486 53.3696 23.9486C54.3119 23.9867 55.2518 23.8296 56.1286 23.4873C57.0053 23.1451 57.7994 22.6253 58.4596 21.9617C59.3372 21.0294 59.866 19.8301 59.9585 18.5617H53.3696V15.9373H62.6437C62.7448 16.4948 62.7918 17.0605 62.7839 17.6267C62.877 19.9787 62.02 22.2712 60.4007 24.0017C59.4864 24.9117 58.3876 25.6214 57.1761 26.0846C55.9646 26.5478 54.6675 26.754 53.3696 26.6898ZM77.1264 20.3148C77.1618 21.1647 77.0225 22.0129 76.7168 22.8084C76.4111 23.6039 75.9454 24.3303 75.3476 24.944C74.7498 25.5577 74.0322 26.0459 73.2381 26.3795C72.4439 26.7131 71.5895 26.885 70.7262 26.885C69.8629 26.885 69.0084 26.7131 68.2143 26.3795C67.4201 26.0459 66.7026 25.5577 66.1048 24.944C65.507 24.3303 65.0412 23.6039 64.7355 22.8084C64.4299 22.0129 64.2906 21.1647 64.326 20.3148C64.2906 19.465 64.4299 18.6168 64.7355 17.8213C65.0412 17.0258 65.507 16.2994 66.1048 15.6857C66.7026 15.072 67.4201 14.5838 68.2143 14.2502C69.0084 13.9166 69.8629 13.7447 70.7262 13.7447C71.5895 13.7447 72.4439 13.9166 73.2381 14.2502C74.0322 14.5838 74.7498 15.072 75.3476 15.6857C75.9454 16.2994 76.4111 17.0258 76.7168 17.8213C77.0225 18.6168 77.1618 19.465 77.1264 20.3148ZM74.3226 20.3148C74.3701 19.8213 74.3125 19.3234 74.1534 18.853C73.9943 18.3826 73.7372 17.9502 73.3987 17.5834C73.0601 17.2167 72.6475 16.9236 72.1872 16.7231C71.727 16.5226 71.2294 16.419 70.7262 16.419C70.223 16.419 69.7253 16.5226 69.2651 16.7231C68.8049 16.9236 68.3923 17.2167 68.0537 17.5834C67.7151 17.9502 67.458 18.3826 67.2989 18.853C67.1398 19.3234 67.0822 19.8213 67.1298 20.3148C67.0822 20.8084 67.1398 21.3063 67.2989 21.7767C67.458 22.2471 67.7151 22.6795 68.0537 23.0463C68.3923 23.413 68.8049 23.7061 69.2651 23.9066C69.7253 24.1071 70.223 24.2107 70.7262 24.2107C71.2294 24.2107 71.727 24.1071 72.1872 23.9066C72.6475 23.7061 73.0601 23.413 73.3987 23.0463C73.7372 22.6795 73.9943 22.2471 74.1534 21.7767C74.3125 21.3063 74.3701 20.8084 74.3226 20.3148ZM91.4689 20.3148C91.4689 21.9859 90.7951 23.5885 89.5959 24.7701C88.3966 25.9517 86.7701 26.6155 85.0741 26.6155C83.378 26.6155 81.7515 25.9517 80.5522 24.7701C79.353 23.5885 78.6792 21.9859 78.6792 20.3148C78.6792 18.6438 79.353 17.0412 80.5522 15.8596C81.7515 14.678 83.378 14.0142 85.0741 14.0142C86.7701 14.0142 88.3966 14.678 89.5959 15.8596C90.7951 17.0412 91.4689 18.6438 91.4689 20.3148ZM88.6759 20.3148C88.7234 19.8213 88.6658 19.3234 88.5067 18.853C88.3476 18.3826 88.0905 17.9502 87.7519 17.5834C87.4134 17.2167 87.0007 16.9236 86.5405 16.7231C86.0803 16.5226 85.5826 16.419 85.0794 16.419C84.5762 16.419 84.0786 16.5226 83.6184 16.7231C83.1582 16.9236 82.7455 17.2167 82.407 17.5834C82.0684 17.9502 81.8113 18.3826 81.6522 18.853C81.4931 19.3234 81.4355 19.8213 81.483 20.3148C81.4355 20.8084 81.4931 21.3063 81.6522 21.7767C81.8113 22.2471 82.0684 22.6795 82.407 23.0463C82.7455 23.413 83.1582 23.7061 83.6184 23.9066C84.0786 24.1071 84.5762 24.2107 85.0794 24.2107C85.5826 24.2107 86.0803 24.1071 86.5405 23.9066C87.0007 23.7061 87.4134 23.413 87.7519 23.0463C88.0905 22.6795 88.3476 22.2471 88.5067 21.7767C88.6658 21.3063 88.7234 20.8084 88.6759 20.3148ZM105.466 14.333V25.7761C105.466 30.4723 102.63 32.4061 99.2871 32.4061C98.0617 32.4163 96.8608 32.0685 95.8359 31.4066C94.8109 30.7447 94.0081 29.7985 93.5286 28.6873L95.9765 27.6248C96.2304 28.2735 96.6727 28.8341 97.2481 29.2366C97.8234 29.6391 98.5064 29.8656 99.2117 29.888C101.368 29.888 102.684 28.5811 102.684 26.148V25.2342H102.576C102.153 25.6993 101.634 26.0697 101.054 26.3208C100.474 26.5719 99.8454 26.6977 99.2117 26.6898C97.4956 26.6898 95.8499 26.0182 94.6365 24.8227C93.4231 23.6271 92.7414 22.0056 92.7414 20.3148C92.7414 18.6241 93.4231 17.0026 94.6365 15.807C95.8499 14.6115 97.4956 13.9398 99.2117 13.9398C99.8496 13.926 100.483 14.0458 101.071 14.2912C101.658 14.5366 102.186 14.9022 102.619 15.3636H102.727V14.3011H105.466V14.333ZM102.954 20.3467C102.993 19.8659 102.934 19.3821 102.781 18.924C102.627 18.466 102.381 18.0431 102.058 17.6804C101.735 17.3177 101.342 17.0226 100.901 16.8126C100.46 16.6026 99.9811 16.482 99.492 16.458C98.9934 16.4742 98.5031 16.5883 98.0498 16.7935C97.5965 16.9987 97.1892 17.2908 96.8518 17.6529C96.5144 18.015 96.2537 18.4397 96.0849 18.9023C95.9161 19.3648 95.8426 19.8559 95.8687 20.3467C95.8455 20.8343 95.9215 21.3214 96.092 21.7797C96.2625 22.2379 96.5242 22.658 96.8617 23.0153C97.1992 23.3725 97.6057 23.6598 98.0574 23.8602C98.5091 24.0606 98.9968 24.1701 99.492 24.1823C99.9782 24.1638 100.455 24.0487 100.895 23.8439C101.335 23.6392 101.729 23.349 102.052 22.9908C102.375 22.6326 102.622 22.2138 102.777 21.7594C102.932 21.3051 102.992 20.8246 102.954 20.3467ZM110.459 7.5861V26.2967H107.612V7.5861H110.459ZM121.674 22.4186L123.896 23.8636C123.303 24.7357 122.5 25.4499 121.56 25.943C120.619 26.436 119.569 26.6926 118.504 26.6898C117.656 26.7018 116.815 26.5442 116.031 26.2265C115.247 25.9089 114.537 25.4378 113.943 24.8418C113.349 24.2459 112.884 23.5374 112.577 22.7592C112.269 21.9811 112.124 21.1495 112.152 20.3148C112.026 18.8799 112.44 17.4493 113.316 16.2958C114.191 15.1424 115.467 14.3467 116.9 14.0604C118.332 13.7741 119.822 14.0173 121.084 14.7436C122.347 15.4699 123.294 16.6285 123.745 17.9986L124.036 18.7317L115.409 22.2486C115.678 22.8439 116.121 23.3463 116.683 23.691C117.244 24.0356 117.897 24.2068 118.558 24.1823C119.186 24.1726 119.802 24.0057 120.347 23.6972C120.893 23.3887 121.349 22.9487 121.674 22.4186ZM114.87 20.1236L120.671 17.7648C120.447 17.3318 120.098 16.9732 119.669 16.7334C119.24 16.4935 118.748 16.383 118.256 16.4155C117.785 16.4358 117.323 16.5483 116.897 16.7465C116.471 16.9446 116.089 17.2245 115.773 17.5697C115.458 17.9149 115.216 18.3186 115.061 18.7571C114.906 19.1956 114.841 19.6601 114.87 20.1236Z" fill="#5F6368"/>
<path d="M14.6018 16.2349L0.129883 31.1736C0.292383 31.7411 0.584419 32.2644 0.983667 32.7036C1.38291 33.1429 1.8788 33.4863 2.43342 33.7078C2.98804 33.9292 3.58671 34.0228 4.18367 33.9814C4.78062 33.9399 5.36005 33.7645 5.87766 33.4686L22.1612 24.3311L14.6018 16.2349Z" fill="#EA4335"/>
<path d="M29.2346 13.6954L22.1927 9.72168L14.2666 16.5748L22.2251 24.3098L29.213 20.3786C29.8321 20.0592 30.3506 19.579 30.7124 18.9899C31.0743 18.4009 31.2655 17.7255 31.2655 17.037C31.2655 16.3485 31.0743 15.6731 30.7124 15.0841C30.3506 14.495 29.8321 14.0148 29.213 13.6954H29.2346Z" fill="#FBBC04"/>
<path d="M0.129449 2.82617C0.0419689 3.1448 -0.00155767 3.47359 4.25657e-05 3.80367V30.1962C0.000917544 30.5261 0.0444022 30.8546 0.129449 31.1737L15.0974 16.6174L0.129449 2.82617Z" fill="#4285F4"/>
<path d="M14.7096 17L22.1936 9.72188L5.93158 0.541883C5.3198 0.188857 4.62399 0.00188471 3.91501 7.59914e-06C3.05875 -0.00166425 2.22542 0.272568 1.54206 0.780902C0.858688 1.28924 0.362765 2.00379 0.129883 2.81563L14.7096 17Z" fill="#34A853"/>
</g>
<defs>
<clipPath id="clip0_342_569">
<rect width="175" height="34" fill="white"/>
</clipPath>
</defs>
</svg>
